<svg xmlns="http://www.w3.org/2000/svg" viewBox="0 0 500 500"><g id="freepik--background-complete--inject-335"><circle cx="390.76" cy="71.87" r="52.58" transform="translate(22.15 220.13) rotate(-32.33)" style="fill:#f5f5f5"></circle><circle cx="390.76" cy="70.73" r="35.23" transform="translate(64.44 297.02) rotate(-45)" style="fill:#e0e0e0"></circle><path d="M426.78,68.82a4.51,4.51,0,0,1,.93-.37,10.6,10.6,0,0,1,2.87-.42,12.13,12.13,0,0,1,4.5.88,11.12,11.12,0,0,1,4.81,3.71,11.6,11.6,0,0,1-1.31,14.77,11.68,11.68,0,0,1-8.74,3.12A11.19,11.19,0,0,1,425,89.12a5.84,5.84,0,0,1-2-1.71,3.07,3.07,0,0,1-.43-2.73,2.52,2.52,0,0,1,2.27-1.59,7.29,7.29,0,0,1,2.61.3,11,11,0,0,1,4.41,2.37,10.88,10.88,0,0,1,.85,16.14,10.77,10.77,0,0,1-6.51,3.39,11.2,11.2,0,0,1-6-1,11.92,11.92,0,0,1-3.7-2.72,10.78,10.78,0,0,1-1.62-2.41,5.84,5.84,0,0,1-.35-.94,13.85,13.85,0,0,0,2.17,3.16,11.93,11.93,0,0,0,3.66,2.55,10.8,10.8,0,0,0,5.76.86,10.31,10.31,0,0,0,6.16-3.29,10.83,10.83,0,0,0,2.95-7.39,11,11,0,0,0-8-10,6.84,6.84,0,0,0-2.36-.27,1.83,1.83,0,0,0-1.68,1.12,2.37,2.37,0,0,0,.35,2.1,5.12,5.12,0,0,0,1.78,1.5,10.43,10.43,0,0,0,4.52,1.31,11.06,11.06,0,0,0,8.24-2.9,11.11,11.11,0,0,0,1.36-14,11,11,0,0,0-4.56-3.64,12,12,0,0,0-4.35-1A14.09,14.09,0,0,0,426.78,68.82Z" style="fill:#e0e0e0"></path><path d="M409.48,41.37a4.89,4.89,0,0,1,.23-1,10.65,10.65,0,0,1,1.3-2.6,12,12,0,0,1,3.29-3.19,11.34,11.34,0,0,1,17.17,7.66,11.66,11.66,0,0,1-2.43,9,11,11,0,0,1-3.88,3.17,5.79,5.79,0,0,1-2.56.67,3.05,3.05,0,0,1-2.49-1.2,2.55,2.55,0,0,1,0-2.77,7.5,7.5,0,0,1,1.73-2,11.19,11.19,0,0,1,4.47-2.28,10.88,10.88,0,0,1,13.75,8.51,10.8,10.8,0,0,1-.94,7.29A11.17,11.17,0,0,1,434.87,67a12,12,0,0,1-4.34,1.48,10.65,10.65,0,0,1-2.9,0,5.18,5.18,0,0,1-1-.25,13.85,13.85,0,0,0,3.83,0,12.07,12.07,0,0,0,4.18-1.55,10.89,10.89,0,0,0,4-4.24,10.35,10.35,0,0,0,.8-6.94,10.27,10.27,0,0,0-13-8,10.45,10.45,0,0,0-4.19,2.14,7,7,0,0,0-1.57,1.78,1.83,1.83,0,0,0,0,2,2.36,2.36,0,0,0,1.92.91,5.31,5.31,0,0,0,2.24-.6,10.38,10.38,0,0,0,3.65-3,11,11,0,0,0,2.33-8.43,11.1,11.1,0,0,0-10.73-9.1,10.91,10.91,0,0,0-5.59,1.67,12,12,0,0,0-3.28,3A14.49,14.49,0,0,0,409.48,41.37Z" style="fill:#e0e0e0"></path><path d="M377.54,37.05a4.35,4.35,0,0,1-.66-.71,10.3,10.3,0,0,1-1.38-2.44,10.88,10.88,0,0,1-.74-4.38A10,10,0,0,1,376.67,24a10.87,10.87,0,0,1,6-3.86,11.51,11.51,0,0,1,14,7.51,10.13,10.13,0,0,1,.44,4.84,5.14,5.14,0,0,1-.91,2.4,3,3,0,0,1-2.38,1.23,2.58,2.58,0,0,1-2.25-1.47,6.73,6.73,0,0,1-.66-2.46,10,10,0,0,1,.7-4.81,10.52,10.52,0,0,1,6.53-6.13,11.86,11.86,0,0,1,8.14.53,11.15,11.15,0,0,1,5.38,4.66,10.19,10.19,0,0,1,1.27,5.73,10.58,10.58,0,0,1-1.25,4.26,9.4,9.4,0,0,1-1.7,2.22,5.19,5.19,0,0,1-.77.61,12.63,12.63,0,0,0,2.23-3,10.55,10.55,0,0,0,1.1-4.15,9.89,9.89,0,0,0-1.32-5.46,10.66,10.66,0,0,0-5.16-4.37,11.35,11.35,0,0,0-7.72-.45,9.86,9.86,0,0,0-6.09,5.77,9.32,9.32,0,0,0-.64,4.48,5.92,5.92,0,0,0,.58,2.19,1.87,1.87,0,0,0,1.63,1.11,2.29,2.29,0,0,0,1.82-1,4.53,4.53,0,0,0,.78-2.09,9.54,9.54,0,0,0-.4-4.51,11.11,11.11,0,0,0-5.54-6.41,11.32,11.32,0,0,0-7.69-.75,10.41,10.41,0,0,0-5.72,3.59,9.67,9.67,0,0,0-1.92,5.27,10.75,10.75,0,0,0,.61,4.26A13.71,13.71,0,0,0,377.54,37.05Z" style="fill:#e0e0e0"></path><path d="M433.07,76.18c0,.1-.38.14-.65.58a.8.8,0,1,0,1.37.17c-.16-.49-.52-.62-.5-.72s.55-.15.95.51a1.42,1.42,0,0,1,.07,1.29,1.4,1.4,0,0,1-1.44.72,1.38,1.38,0,0,1-1.22-1.06,1.42,1.42,0,0,1,.38-1.23C432.58,75.9,433.12,76.1,433.07,76.18Z" style="fill:#e0e0e0"></path><path d="M430.9,59c0,.11-.38.15-.66.59a.8.8,0,1,0,1.38.17c-.16-.49-.53-.63-.5-.73s.55-.14.95.52a1.4,1.4,0,0,1,.07,1.28,1.41,1.41,0,1,1-2.28-1.56C430.41,58.75,431,58.94,430.9,59Z" style="fill:#e0e0e0"></path><path d="M420.79,39.9c0,.1-.39.14-.66.58a.8.8,0,1,0,1.37.17c-.15-.49-.52-.63-.49-.73s.55-.14.95.52a1.41,1.41,0,1,1-2.21-.28C420.29,39.62,420.83,39.82,420.79,39.9Z" style="fill:#e0e0e0"></path><path d="M405.05,31.17c0,.1-.39.14-.66.58a.8.8,0,1,0,1.37.17c-.15-.49-.52-.63-.49-.73s.55-.14,1,.52a1.4,1.4,0,0,1,.06,1.28,1.45,1.45,0,0,1-2.66-.33,1.42,1.42,0,0,1,.38-1.23C404.55,30.89,405.09,31.09,405.05,31.17Z" style="fill:#e0e0e0"></path><path d="M384.53,29.33c0,.1-.39.14-.66.58a.8.8,0,1,0,1.37.17c-.16-.49-.52-.62-.5-.72s.55-.15.95.51a1.33,1.33,0,0,1-1.37,2,1.38,1.38,0,0,1-1.22-1.06,1.42,1.42,0,0,1,.38-1.23C384,29.05,384.57,29.25,384.53,29.33Z" style="fill:#e0e0e0"></path><path d="M425.14,94.6c0,.11-.39.14-.66.58a.8.8,0,1,0,1.38.17c-.16-.49-.53-.62-.5-.72s.55-.15.95.51a1.42,1.42,0,0,1,.07,1.29,1.46,1.46,0,0,1-2.67-.33,1.37,1.37,0,0,1,.39-1.23C424.64,94.33,425.19,94.52,425.14,94.6Z" style="fill:#e0e0e0"></path><path d="M355.13,62.26a5,5,0,0,1-1,.05,10.83,10.83,0,0,1-2.85-.53,11.74,11.74,0,0,1-4-2.27,11.11,11.11,0,0,1-3.36-5.06,11.23,11.23,0,0,1,.32-7.34,11.35,11.35,0,0,1,5.66-6.23,11.65,11.65,0,0,1,9.27-.14,11,11,0,0,1,4.12,2.86,5.76,5.76,0,0,1,1.36,2.26,3.05,3.05,0,0,1-.47,2.73,2.55,2.55,0,0,1-2.66.78,7.62,7.62,0,0,1-2.37-1.12,11,11,0,0,1-3.42-3.67,11.35,11.35,0,0,1-1.14-9.2A11.43,11.43,0,0,1,360.11,29a10.77,10.77,0,0,1,7.26-1.11,11.07,11.07,0,0,1,5.35,2.87,11.75,11.75,0,0,1,2.63,3.76,10.45,10.45,0,0,1,.76,2.79,5.12,5.12,0,0,1,0,1,13.74,13.74,0,0,0-1-3.69,11.76,11.76,0,0,0-2.65-3.58,10.81,10.81,0,0,0-5.18-2.68,10.31,10.31,0,0,0-6.88,1.15,10.78,10.78,0,0,0-5.17,6.05,10.68,10.68,0,0,0,1.11,8.64,10.24,10.24,0,0,0,3.22,3.43,6.68,6.68,0,0,0,2.14,1,1.81,1.81,0,0,0,1.95-.53,2.35,2.35,0,0,0,.34-2.1,5.21,5.21,0,0,0-1.2-2,10.47,10.47,0,0,0-3.86-2.68,11.09,11.09,0,0,0-8.74.09A11.1,11.1,0,0,0,344.4,54.3a10.84,10.84,0,0,0,3.15,4.91,12,12,0,0,0,3.81,2.32A14.13,14.13,0,0,0,355.13,62.26Z" style="fill:#e0e0e0"></path><path d="M362.69,93.81a4.49,4.49,0,0,1-.53.86,11.23,11.23,0,0,1-2.06,2,11.92,11.92,0,0,1-4.14,2,10.79,10.79,0,0,1-11.91-4.58,11.3,11.3,0,0,1-1.9-8.2,11.72,11.72,0,0,1,5.18-7.7,11.1,11.1,0,0,1,4.7-1.75,5.78,5.78,0,0,1,2.63.18,3.08,3.08,0,0,1,2,1.94,2.54,2.54,0,0,1-.89,2.63,7.53,7.53,0,0,1-2.27,1.31,11.17,11.17,0,0,1-5,.72,10.89,10.89,0,0,1-10.28-12.47,10.72,10.72,0,0,1,3.22-6.6,11.08,11.08,0,0,1,5.41-2.76,11.75,11.75,0,0,1,4.59,0,10.37,10.37,0,0,1,2.73,1,4.4,4.4,0,0,1,.84.55,13.89,13.89,0,0,0-3.62-1.25,11.76,11.76,0,0,0-4.46.13,10.73,10.73,0,0,0-5.15,2.73,10.34,10.34,0,0,0-3,6.3,10.27,10.27,0,0,0,9.75,11.72,10.47,10.47,0,0,0,4.65-.69,6.85,6.85,0,0,0,2.06-1.17,1.83,1.83,0,0,0,.68-1.91,2.38,2.38,0,0,0-1.53-1.48,5.16,5.16,0,0,0-2.32-.14,10.47,10.47,0,0,0-4.4,1.63A11.07,11.07,0,0,0,342.8,86,11.08,11.08,0,0,0,350,98.08a10.82,10.82,0,0,0,5.83.22,12,12,0,0,0,4.07-1.82A13.47,13.47,0,0,0,362.69,93.81Z" style="fill:#e0e0e0"></path><path d="M391.56,108.15a4.85,4.85,0,0,1,.4.89,10.62,10.62,0,0,1,.52,2.75,10.91,10.91,0,0,1-.7,4.39,9.94,9.94,0,0,1-3.6,4.64,10.86,10.86,0,0,1-6.89,1.74,11.52,11.52,0,0,1-10.88-11.62,10,10,0,0,1,1.14-4.72,5.23,5.23,0,0,1,1.63-2,3,3,0,0,1,2.65-.41,2.59,2.59,0,0,1,1.66,2.13,7,7,0,0,1-.16,2.54,10,10,0,0,1-2.21,4.32,10.52,10.52,0,0,1-8.16,3.71,11.91,11.91,0,0,1-7.54-3.11,11.17,11.17,0,0,1-3.59-6.14,10.13,10.13,0,0,1,.64-5.84A10.39,10.39,0,0,1,359,97.81a9.23,9.23,0,0,1,2.33-1.56,4.4,4.4,0,0,1,.92-.32A12.25,12.25,0,0,0,359.2,98a10.66,10.66,0,0,0-2.37,3.58,9.92,9.92,0,0,0-.51,5.6,10.64,10.64,0,0,0,3.49,5.79,11.33,11.33,0,0,0,7.17,2.9,9.83,9.83,0,0,0,7.61-3.51,9.21,9.21,0,0,0,2.05-4,6,6,0,0,0,.16-2.27,1.9,1.9,0,0,0-1.2-1.57,2.28,2.28,0,0,0-2,.32,4.62,4.62,0,0,0-1.41,1.73,9.44,9.44,0,0,0-1.07,4.4,10.91,10.91,0,0,0,10.23,11,10.39,10.39,0,0,0,6.57-1.56,9.61,9.61,0,0,0,3.51-4.38,11.06,11.06,0,0,0,.8-4.23A14.18,14.18,0,0,0,391.56,108.15Z" style="fill:#e0e0e0"></path><path d="M351.52,53.27c0-.1.42,0,.81-.34a.79.79,0,1,0-1.24-.6c0,.51.29.76.24.84s-.57,0-.74-.79a1.42,1.42,0,0,1,.35-1.24,1.4,1.4,0,1,1,1.66,2.21C351.91,53.69,351.46,53.33,351.52,53.27Z" style="fill:#e0e0e0"></path><path d="M348.07,70.21c0-.1.42,0,.81-.34a.79.79,0,1,0-1.24-.6c0,.52.29.76.24.85s-.57,0-.74-.79a1.42,1.42,0,0,1,.35-1.24,1.46,1.46,0,0,1,2.42,1.17,1.41,1.41,0,0,1-.76,1C348.46,70.63,348,70.28,348.07,70.21Z" style="fill:#e0e0e0"></path><path d="M351.51,91.58c0-.1.41,0,.81-.34a.8.8,0,1,0-1.24-.61c0,.52.29.76.23.85s-.56,0-.73-.79a1.39,1.39,0,0,1,.35-1.24,1.37,1.37,0,0,1,1.6-.22,1.38,1.38,0,0,1,.81,1.39,1.4,1.4,0,0,1-.75,1C351.89,92,351.44,91.64,351.51,91.58Z" style="fill:#e0e0e0"></path><path d="M363.62,104.9c0-.1.41,0,.81-.34a.8.8,0,1,0-1.25-.61c0,.52.3.76.24.85s-.57,0-.73-.79a1.39,1.39,0,1,1,2.76-.07,1.4,1.4,0,0,1-.76,1C364,105.32,363.55,105,363.62,104.9Z" style="fill:#e0e0e0"></path><path d="M382.46,113.22c0-.1.42,0,.81-.33a.8.8,0,1,0-1.24-.61c0,.52.29.76.24.85s-.57,0-.74-.79a1.42,1.42,0,0,1,.35-1.24,1.46,1.46,0,0,1,2.42,1.17,1.41,1.41,0,0,1-.76,1C382.85,113.64,382.4,113.29,382.46,113.22Z" style="fill:#e0e0e0"></path><path d="M399,114.09c0-.1.42,0,.81-.34a.79.79,0,1,0-1.24-.6c0,.51.29.76.23.84s-.56,0-.73-.79a1.42,1.42,0,0,1,.35-1.24,1.4,1.4,0,1,1,1.66,2.21C399.37,114.51,398.92,114.15,399,114.09Z" style="fill:#e0e0e0"></path><path d="M413.63,106.88c0-.1.41,0,.81-.34a.79.79,0,1,0-1.24-.6c0,.51.29.76.23.84s-.57,0-.73-.79a1.39,1.39,0,1,1,2.76-.07,1.37,1.37,0,0,1-.76,1C414,107.3,413.56,106.94,413.63,106.88Z" style="fill:#e0e0e0"></path><path d="M365,38.37c0-.1.41,0,.81-.34a.79.79,0,1,0-1.24-.6c0,.51.29.76.23.84s-.56,0-.73-.79A1.33,1.33,0,0,1,366,36a1.33,1.33,0,0,1,.06,2.43C365.33,38.79,364.88,38.43,365,38.37Z" style="fill:#e0e0e0"></path><path d="M415,99.31a3.43,3.43,0,0,1,.62.62,13.37,13.37,0,0,1,1.43,2,14.92,14.92,0,0,1,1.84,8.92,10.21,10.21,0,0,1-2.39,5.91,5.55,5.55,0,0,1-3.23,1.71,7.12,7.12,0,0,1-3.81-.58c-2.47-1.09-4.27-3.28-5.91-5.53a5.83,5.83,0,0,1-1.23-4.21,3.18,3.18,0,0,1,3.39-2.82,6.48,6.48,0,0,1,4.12,1.88,8.27,8.27,0,0,1,2.21,3.76,7.86,7.86,0,0,1,0,4.22,8.78,8.78,0,0,1-2,3.51,9.24,9.24,0,0,1-6.63,3,10.59,10.59,0,0,1-6.11-1.83,11.09,11.09,0,0,1-3.54-3.89,12.56,12.56,0,0,1-1.33-3.74,12.18,12.18,0,0,1-.21-2.49,3.34,3.34,0,0,1,.09-.87,21.53,21.53,0,0,0,.39,3.3,12.72,12.72,0,0,0,1.4,3.6,10.81,10.81,0,0,0,3.47,3.67,10.24,10.24,0,0,0,5.82,1.66,8.65,8.65,0,0,0,6.17-2.88,7.44,7.44,0,0,0,1.79-7.1,7.67,7.67,0,0,0-2-3.45,5.83,5.83,0,0,0-3.64-1.67,2.64,2.64,0,0,0-1.81.57,2.7,2.7,0,0,0-.87,1.66,5.07,5.07,0,0,0,1.11,3.7c1.58,2.2,3.34,4.32,5.59,5.33a6.5,6.5,0,0,0,3.47.55,4.88,4.88,0,0,0,2.88-1.49,9.85,9.85,0,0,0,2.33-5.56,15.06,15.06,0,0,0-1.6-8.74A24.34,24.34,0,0,0,415,99.31Z" style="fill:#e0e0e0"></path><path d="M443.33,71.87s0-.29-.07-.86-.1-1.41-.17-2.49L443,66.68c-.07-.67-.21-1.4-.33-2.19s-.26-1.65-.41-2.56-.45-1.86-.68-2.87a50.11,50.11,0,0,0-5.83-13.94,52.22,52.22,0,0,0-13.31-14.85l-2.27-1.68c-.79-.52-1.63-1-2.46-1.51s-1.64-1.07-2.55-1.48l-2.71-1.3-1.38-.65-1.46-.53-2.94-1.07c-1-.33-2-.55-3.08-.83a27.33,27.33,0,0,0-3.16-.71,49.51,49.51,0,0,0-6.61-.77c-1.13,0-2.27-.15-3.41-.13l-3.46.18c-.58,0-1.17,0-1.75.11l-1.74.27c-1.16.2-2.35.33-3.52.57a58,58,0,0,0-13.78,5c-1.1.6-2.16,1.3-3.25,1.95-.53.34-1.11.63-1.61,1l-1.54,1.15a58.55,58.55,0,0,0-5.93,5A58.62,58.62,0,0,0,348.69,41l-1.2,1.61-1.05,1.72-1.05,1.73a13.32,13.32,0,0,0-1,1.78c-.59,1.22-1.18,2.45-1.78,3.68l-1.41,3.87a55.71,55.71,0,0,0-2.7,16.48,56,56,0,0,0,2.69,16.48l1.42,3.87,1.77,3.69.45.91.53.87,1.05,1.73,1.05,1.72,1.2,1.6a58.74,58.74,0,0,0,5.12,6.06,57.48,57.48,0,0,0,5.93,5l1.53,1.15c.51.39,1.08.68,1.62,1,1.09.65,2.15,1.35,3.25,2a57.9,57.9,0,0,0,13.79,5c1.17.24,2.35.38,3.51.57l1.75.27c.58.07,1.16.07,1.74.11l3.46.18c1.15,0,2.28-.09,3.41-.13a47.74,47.74,0,0,0,6.61-.77,27.33,27.33,0,0,0,3.16-.71c1-.28,2.09-.5,3.08-.83l3-1.07,1.45-.53,1.38-.65,2.72-1.3c.9-.41,1.7-1,2.55-1.48s1.66-1,2.46-1.51l2.26-1.68a52.26,52.26,0,0,0,13.32-14.85,50.35,50.35,0,0,0,5.82-13.94,28,28,0,0,0,.68-2.87c.15-.91.29-1.76.41-2.56s.26-1.52.33-2.19.08-1.29.11-1.84c.07-1.08.13-1.91.17-2.49s.07-.85.07-.85,0,.28,0,.85-.05,1.42-.09,2.5c0,.55-.05,1.17-.08,1.85s-.19,1.41-.3,2.2-.24,1.66-.38,2.58a27.87,27.87,0,0,1-.66,2.88,49.64,49.64,0,0,1-5.75,14.08,52.18,52.18,0,0,1-13.35,15l-2.28,1.72c-.79.52-1.64,1-2.47,1.53s-1.66,1.08-2.57,1.5l-2.74,1.32-1.4.67-1.46.54-3,1.09c-1,.34-2.07.56-3.12.85a27.88,27.88,0,0,1-3.19.73,48.91,48.91,0,0,1-6.69.79c-1.14,0-2.29.16-3.44.14l-3.5-.17c-.59,0-1.18,0-1.77-.11l-1.77-.27c-1.17-.19-2.37-.33-3.56-.57a55.36,55.36,0,0,1-7.05-2.06,53.8,53.8,0,0,1-6.91-3c-1.12-.6-2.19-1.31-3.3-2-.54-.35-1.12-.64-1.64-1l-1.56-1.17a58.66,58.66,0,0,1-6-5.1,58,58,0,0,1-5.2-6.13l-1.22-1.62-1.06-1.75L344.78,98l-.53-.88-.46-.92L342,92.48l-1.44-3.92a56.21,56.21,0,0,1-2.73-16.7,56.21,56.21,0,0,1,2.73-16.7L342,51.24l1.8-3.73a13.8,13.8,0,0,1,1-1.81L345.85,44l1.07-1.74,1.22-1.63a60,60,0,0,1,5.19-6.13,58.85,58.85,0,0,1,6-5.09l1.56-1.17c.51-.39,1.09-.68,1.63-1,1.11-.65,2.18-1.36,3.3-2a53.8,53.8,0,0,1,6.91-3,55.36,55.36,0,0,1,7.05-2.06c1.19-.24,2.39-.38,3.56-.57l1.77-.27c.58-.07,1.18-.07,1.76-.11l3.5-.17c1.16,0,2.31.1,3.45.14a48.58,48.58,0,0,1,6.68.79,27.57,27.57,0,0,1,3.2.73c1.05.29,2.1.51,3.11.85l3,1.09,1.47.54,1.39.67,2.74,1.32c.92.42,1.72,1,2.57,1.5s1.68,1,2.48,1.53l2.28,1.71a52.46,52.46,0,0,1,13.35,15A49.87,49.87,0,0,1,441.82,59a28.63,28.63,0,0,1,.66,2.89c.14.92.26,1.78.38,2.58s.24,1.53.3,2.2,0,1.3.08,1.85c0,1.08.07,1.91.09,2.5S443.33,71.87,443.33,71.87Z" style="fill:#e0e0e0"></path><circle cx="390.76" cy="70.73" r="35.23" transform="translate(64.44 297.02) rotate(-45)" style="fill:#fafafa"></circle><path d="M426,70.73a3.35,3.35,0,0,1-.07-.57q0-.61-.12-1.68c0-.37-.05-.78-.08-1.23s-.14-.93-.22-1.47a26.65,26.65,0,0,0-.75-3.62,33.25,33.25,0,0,0-3.91-9.32,35,35,0,0,0-8.92-9.92,34.88,34.88,0,0,0-33.05-5A32.07,32.07,0,0,0,370,42.69a40.55,40.55,0,0,0-4,3.37,39.34,39.34,0,0,0-3.42,4,33.62,33.62,0,0,0-5,9.61,37.15,37.15,0,0,0-1.8,11,37.17,37.17,0,0,0,1.8,11,33.75,33.75,0,0,0,5,9.61,39.34,39.34,0,0,0,3.42,4,39.11,39.11,0,0,0,4,3.36,36.09,36.09,0,0,0,4.27,2.76,37.34,37.34,0,0,0,4.56,2,35,35,0,0,0,42-14.9,33.25,33.25,0,0,0,3.91-9.32,26.46,26.46,0,0,0,.75-3.63c.08-.53.17-1,.22-1.46s.06-.86.08-1.23c.05-.71.09-1.27.12-1.67a3.14,3.14,0,0,1,.07-.57,4.07,4.07,0,0,1,0,.57c0,.41,0,1,0,1.67,0,.38,0,.79-.05,1.24s-.13,1-.2,1.48a25,25,0,0,1-.68,3.67,33.37,33.37,0,0,1-3.84,9.46,35.36,35.36,0,0,1-42.54,15.3,32.68,32.68,0,0,1-9-4.82,39.61,39.61,0,0,1-4-3.43,40.89,40.89,0,0,1-3.5-4.12A34.46,34.46,0,0,1,357,82a38,38,0,0,1-1.84-11.23A38.06,38.06,0,0,1,357,59.49a34.05,34.05,0,0,1,5.1-9.79,32.64,32.64,0,0,1,7.53-7.55,32.68,32.68,0,0,1,9-4.82,35.7,35.7,0,0,1,18.67-1.5,35.49,35.49,0,0,1,23.87,16.8A33.37,33.37,0,0,1,425,62.09a25,25,0,0,1,.68,3.67c.07.53.16,1,.2,1.48s0,.86.05,1.24c0,.71,0,1.26,0,1.67A4.26,4.26,0,0,1,426,70.73Z" style="fill:#e0e0e0"></path><circle cx="418.8" cy="191.58" r="47.35" transform="translate(-12.8 352.25) rotate(-45)" style="fill:#fafafa"></circle><path d="M466.15,191.58s0-.26-.08-.77-.09-1.28-.15-2.24c0-.5-.07-1-.1-1.66s-.2-1.26-.31-2a34.06,34.06,0,0,0-1-4.88,45.25,45.25,0,0,0-5.25-12.55,47.32,47.32,0,0,0-31.79-22.13,44.57,44.57,0,0,0-6-.68c-1,0-2-.13-3.06-.12l-3.12.16c-.52,0-1,0-1.57.11l-1.56.24c-1.05.17-2.11.29-3.16.51a50.9,50.9,0,0,0-6.27,1.84,49.45,49.45,0,0,0-6.13,2.7c-1,.54-1.94,1.16-2.92,1.75a23.45,23.45,0,0,0-2.84,2,42.77,42.77,0,0,0-9.93,10,45.08,45.08,0,0,0-6.71,12.94,46.5,46.5,0,0,0,0,29.64A45.49,45.49,0,0,0,381,219.34a42.77,42.77,0,0,0,9.93,10,23.34,23.34,0,0,0,2.83,2c1,.59,1.94,1.21,2.93,1.75a49.45,49.45,0,0,0,6.13,2.7,50.9,50.9,0,0,0,6.27,1.84c1.05.22,2.11.34,3.16.51l1.57.24c.52.07,1,.07,1.57.11l3.11.16c1,0,2-.08,3.06-.12a44.57,44.57,0,0,0,6-.68,47.32,47.32,0,0,0,31.79-22.13,45.25,45.25,0,0,0,5.25-12.55,34.33,34.33,0,0,0,1-4.88c.11-.71.24-1.37.31-2s.07-1.16.1-1.66c.06-1,.11-1.71.15-2.24s.08-.77.08-.77,0,.26,0,.77,0,1.29-.08,2.25c0,.5,0,1.06-.06,1.67s-.17,1.27-.27,2a33,33,0,0,1-.93,4.93,44.71,44.71,0,0,1-5.17,12.69,47.62,47.62,0,0,1-32,22.54,45.57,45.57,0,0,1-6,.71c-1,0-2.06.14-3.11.13l-3.15-.15c-.53,0-1.07,0-1.6-.1l-1.59-.24c-1.06-.18-2.14-.3-3.21-.52a50.55,50.55,0,0,1-6.36-1.85,48.85,48.85,0,0,1-6.23-2.73c-1-.54-2-1.18-3-1.77a24.13,24.13,0,0,1-2.88-2,43.32,43.32,0,0,1-10.1-10.12,46.22,46.22,0,0,1-6.84-13.15,47.27,47.27,0,0,1,0-30.13,45.88,45.88,0,0,1,6.83-13.14,43.32,43.32,0,0,1,10.1-10.12,23.77,23.77,0,0,1,2.88-2c1-.6,2-1.23,3-1.77a48.85,48.85,0,0,1,6.23-2.73,50.55,50.55,0,0,1,6.36-1.85c1.07-.22,2.15-.34,3.21-.52l1.59-.24c.53-.06,1.07-.06,1.6-.1l3.15-.15c1.05,0,2.08.09,3.11.13a45.42,45.42,0,0,1,6,.71,47.59,47.59,0,0,1,32.05,22.54A44.6,44.6,0,0,1,464.81,180a33.09,33.09,0,0,1,.93,4.92c.1.72.22,1.38.27,2s0,1.17.06,1.67c0,1,.06,1.71.08,2.25S466.15,191.58,466.15,191.58Z" style="fill:#e0e0e0"></path><circle cx="418.8" cy="190.55" r="31.73" transform="matrix(0.93, -0.38, 0.38, 0.93, -40.9, 171.14)" style="fill:#fafafa"></circle><path d="M450.53,190.55a1.85,1.85,0,0,1-.07-.51c0-.38-.07-.88-.11-1.5,0-.34-.05-.71-.08-1.11s-.13-.85-.21-1.32a22.4,22.4,0,0,0-.67-3.27,30.25,30.25,0,0,0-3.54-8.38,31.41,31.41,0,0,0-37.74-13.37,32.79,32.79,0,0,0-4.09,1.8,33.37,33.37,0,0,0-3.84,2.47,35,35,0,0,0-3.56,3,37,37,0,0,0-3.07,3.63,30.57,30.57,0,0,0-4.48,8.64,31.18,31.18,0,0,0,0,19.78,30.32,30.32,0,0,0,4.48,8.64,36,36,0,0,0,3.07,3.64,34.89,34.89,0,0,0,3.56,3,32.16,32.16,0,0,0,3.84,2.48,32.79,32.79,0,0,0,4.09,1.8,31.59,31.59,0,0,0,16.49,1.38,31.18,31.18,0,0,0,13.23-5.85,31.6,31.6,0,0,0,8-8.91,30.37,30.37,0,0,0,3.53-8.38,22.29,22.29,0,0,0,.67-3.26,15.92,15.92,0,0,0,.29-2.43c0-.63.08-1.12.11-1.5a2,2,0,0,1,.07-.52,4.15,4.15,0,0,1,0,.52c0,.38,0,.88,0,1.51a13.85,13.85,0,0,1-.21,2.45,22,22,0,0,1-.61,3.31,30,30,0,0,1-3.45,8.52A31.94,31.94,0,0,1,424.71,222a32.07,32.07,0,0,1-16.84-1.34,34.31,34.31,0,0,1-4.19-1.83,33.64,33.64,0,0,1-3.94-2.52,36.61,36.61,0,0,1-3.65-3.09,37.5,37.5,0,0,1-3.15-3.72,30.79,30.79,0,0,1-4.6-8.85,31.74,31.74,0,0,1,0-20.26,31.29,31.29,0,0,1,4.6-8.85,36.27,36.27,0,0,1,3.15-3.71,35.32,35.32,0,0,1,3.65-3.09,32.39,32.39,0,0,1,3.94-2.52,32.84,32.84,0,0,1,4.19-1.83,32.08,32.08,0,0,1,16.84-1.35,31.94,31.94,0,0,1,21.52,15.17,30.06,30.06,0,0,1,3.45,8.53,22.14,22.14,0,0,1,.61,3.3c.06.49.14.93.17,1.34s0,.78,0,1.12c0,.63,0,1.13,0,1.51A3.91,3.91,0,0,1,450.53,190.55Z" style="fill:#e0e0e0"></path><path d="M455.11,191.58a3.47,3.47,0,0,1-.07-.6c0-.43-.06-1-.11-1.75a22.75,22.75,0,0,0-.26-2.83,34,34,0,0,0-.65-3.82c-.16-.71-.33-1.46-.52-2.25s-.5-1.58-.77-2.43q-.21-.63-.42-1.29c-.19-.42-.37-.85-.57-1.3a26.06,26.06,0,0,0-1.26-2.71,34.13,34.13,0,0,0-8.71-10.87,35.27,35.27,0,0,0-15.21-7.18,40.9,40.9,0,0,0-19.27,1,37.73,37.73,0,0,0-9.42,4.61,36.63,36.63,0,0,0-7.82,7.62,39,39,0,0,0-7.43,21.51,44.46,44.46,0,0,0,.09,5.89,35.08,35.08,0,0,0,1.07,5.71,29.69,29.69,0,0,0,4.87,10.18,34.17,34.17,0,0,0,7.84,7.59,42.32,42.32,0,0,0,9.41,4.67c13.07,4.18,26.52,2.93,35.34-2.59a27.5,27.5,0,0,0,9.4-10.17,33.73,33.73,0,0,0,3.49-10,35.39,35.39,0,0,0,.58-3.84,26.47,26.47,0,0,0,.24-2.83c0-.74.07-1.32.1-1.75a4.59,4.59,0,0,1,.06-.6,3.88,3.88,0,0,1,0,.6c0,.43,0,1,0,1.75a22.33,22.33,0,0,1-.16,2.85,32,32,0,0,1-.52,3.87,33.56,33.56,0,0,1-3.4,10.13,27.92,27.92,0,0,1-9.48,10.43c-9,5.69-22.58,7-35.87,2.8a42.84,42.84,0,0,1-9.6-4.74,34.72,34.72,0,0,1-8-7.76,30.12,30.12,0,0,1-5-10.42,35.49,35.49,0,0,1-1.1-5.83,43,43,0,0,1-.09-6,39.66,39.66,0,0,1,7.59-21.92,37.34,37.34,0,0,1,8-7.78,38.59,38.59,0,0,1,9.63-4.68,41.39,41.39,0,0,1,19.61-1,35.73,35.73,0,0,1,15.43,7.39,34.33,34.33,0,0,1,8.75,11.09,27.79,27.79,0,0,1,1.25,2.76c.18.45.37.89.55,1.32s.28.88.41,1.31c.26.85.55,1.66.75,2.45s.33,1.56.49,2.28a35.33,35.33,0,0,1,.58,3.86,21.25,21.25,0,0,1,.19,2.85c0,.74,0,1.32,0,1.75A3.39,3.39,0,0,1,455.11,191.58Z" style="fill:#f5f5f5"></path><path d="M445.69,190.57a2.62,2.62,0,0,1-.06-.45c0-.33-.05-.76-.09-1.3a17.37,17.37,0,0,0-.21-2.11,25.35,25.35,0,0,0-.5-2.85,28.47,28.47,0,0,0-2.71-7.41,25.08,25.08,0,0,0-6.63-8,24.78,24.78,0,0,0-11.44-5.05,26,26,0,0,0-3.45-.36c-.58,0-1.18-.08-1.77-.05l-1.8.09a32.84,32.84,0,0,0-3.65.47,28.22,28.22,0,0,0-3.63,1.05,23.59,23.59,0,0,0-6.84,3.73,24,24,0,0,0-5.54,5.93,27.82,27.82,0,0,0-3.54,7.65,34.35,34.35,0,0,0-1.2,8.62,31.5,31.5,0,0,0,1.31,8.59,27.47,27.47,0,0,0,3.75,7.55,26.94,26.94,0,0,0,12.52,9.58,29.56,29.56,0,0,0,7.25,1.7,31,31,0,0,0,7-.18,25.59,25.59,0,0,0,6.32-1.73A23.58,23.58,0,0,0,436,212.9a24.17,24.17,0,0,0,6.43-8.12,29.61,29.61,0,0,0,2.51-7.49,27,27,0,0,0,.45-2.85,17.44,17.44,0,0,0,.2-2.12c0-.54.06-1,.09-1.3a2.23,2.23,0,0,1,.05-.45,2.19,2.19,0,0,1,0,.45c0,.33,0,.77,0,1.31a15.81,15.81,0,0,1-.12,2.13,23.78,23.78,0,0,1-.38,2.89,29.05,29.05,0,0,1-2.42,7.62,24.35,24.35,0,0,1-6.48,8.36,23.55,23.55,0,0,1-5.25,3.27,25.87,25.87,0,0,1-6.47,1.83,31.66,31.66,0,0,1-7.18.22,30.21,30.21,0,0,1-7.44-1.71,26.73,26.73,0,0,1-7-3.83,26.34,26.34,0,0,1-5.84-6,28.22,28.22,0,0,1-3.88-7.76,32.41,32.41,0,0,1-1.34-8.82,34.59,34.59,0,0,1,1.23-8.83,28.23,28.23,0,0,1,3.65-7.86,24.67,24.67,0,0,1,5.72-6.1,24.35,24.35,0,0,1,7.05-3.82,30.12,30.12,0,0,1,3.73-1.05,32.39,32.39,0,0,1,3.74-.47l1.84-.08c.61,0,1.22,0,1.82.06a24,24,0,0,1,3.52.39,25.33,25.33,0,0,1,18.34,13.46,15.65,15.65,0,0,1,.95,2.05,15.28,15.28,0,0,1,.74,2l.57,1.83q.19.9.36,1.71a22.58,22.58,0,0,1,.44,2.88,14.5,14.5,0,0,1,.13,2.13c0,.54,0,1,0,1.31A2.19,2.19,0,0,1,445.69,190.57Z" style="fill:#f5f5f5"></path><path d="M440.52,190.57a47.28,47.28,0,0,0-.72-5.41,22.66,22.66,0,0,0-2.2-6,20.2,20.2,0,0,0-5.34-6.41,20,20,0,0,0-9.2-4.05,23,23,0,0,0-11.5,1,20,20,0,0,0-9.95,7.77,22.43,22.43,0,0,0-2.85,6.15,28,28,0,0,0-1,6.93,25.29,25.29,0,0,0,1.05,6.91,22.52,22.52,0,0,0,3,6.07,21.51,21.51,0,0,0,10.06,7.7,23.5,23.5,0,0,0,5.83,1.37,24.09,24.09,0,0,0,5.65-.14,20.12,20.12,0,0,0,5.08-1.39,19,19,0,0,0,4.15-2.53,19.41,19.41,0,0,0,5.18-6.53,23.8,23.8,0,0,0,2-6c.66-3.45.55-5.42.66-5.41s0,.12,0,.36V192a14.33,14.33,0,0,1-.09,1.72,19.82,19.82,0,0,1-.31,2.33,23.08,23.08,0,0,1-1.94,6.16A19.67,19.67,0,0,1,433,209a18.74,18.74,0,0,1-4.26,2.66,20.86,20.86,0,0,1-5.22,1.48,25,25,0,0,1-5.82.18,24.08,24.08,0,0,1-6-1.38A22.08,22.08,0,0,1,401.25,204a22.93,22.93,0,0,1-3.13-6.28,25.4,25.4,0,0,1-1.09-7.14,27.84,27.84,0,0,1,1-7.14,22.84,22.84,0,0,1,3-6.36,20.7,20.7,0,0,1,10.34-8c8.07-2.78,16.4-.78,21.28,3.33A20.59,20.59,0,0,1,438,179a22.42,22.42,0,0,1,2.1,6.11,18.12,18.12,0,0,1,.35,2.33,12.56,12.56,0,0,1,.1,1.72c0,.42,0,.77,0,1.06S440.54,190.57,440.52,190.57Z" style="fill:#f5f5f5"></path><path d="M411.11,174.68c.05.09-1.37.73-3.51,2.51a18.1,18.1,0,0,0-3.36,3.71,15.83,15.83,0,0,0-2,14,18.07,18.07,0,0,0,4.86,7.68,15.09,15.09,0,0,0,4.1,2.74,14.74,14.74,0,0,0,4.95,1.37,17.36,17.36,0,0,0,5.32-.24,21.68,21.68,0,0,0,5.2-1.85,20,20,0,0,0,4.44-3.25A17,17,0,0,0,436,187.21a18.27,18.27,0,0,0-3.31-8.48,16.18,16.18,0,0,0-2.82-3,15.34,15.34,0,0,0-3.27-2,15.55,15.55,0,0,0-6.45-1.26,18.63,18.63,0,0,0-5,.76c-2.66.78-4,1.57-4.05,1.48a17.13,17.13,0,0,1,4-1.77,18.38,18.38,0,0,1,5-.9,15.56,15.56,0,0,1,6.67,1.19,14.76,14.76,0,0,1,3.43,2,16.42,16.42,0,0,1,3,3.13,18.94,18.94,0,0,1,3.5,8.77,17.68,17.68,0,0,1-1.77,10.26,18.54,18.54,0,0,1-3.27,4.51,20.83,20.83,0,0,1-4.63,3.39,22.45,22.45,0,0,1-5.4,1.91,18.36,18.36,0,0,1-5.57.25,15.67,15.67,0,0,1-5.18-1.46,15.47,15.47,0,0,1-4.26-2.89c-4.92-4.67-6.56-11.27-5.45-16.22a16.34,16.34,0,0,1,2.72-6.21,17.39,17.39,0,0,1,3.53-3.71A16.13,16.13,0,0,1,411.11,174.68Z" style="fill:#f5f5f5"></path><path d="M414.3,179.88c0,.07-.82.48-2.1,1.57a10,10,0,0,0-.25,15.27,9.35,9.35,0,0,0,5.42,2.46,11.11,11.11,0,0,0,6.3-1.26,10.67,10.67,0,0,0,4.55-4.52,10.47,10.47,0,0,0-4.57-14,10.3,10.3,0,0,0-6.87-.35c-1.62.46-2.45.92-2.48.85s.18-.15.58-.36a9.89,9.89,0,0,1,1.81-.77,10.26,10.26,0,0,1,7.18.13c2.93,1.14,5.57,4.42,6.11,8.54a10.81,10.81,0,0,1-1.08,6.32,11.33,11.33,0,0,1-4.87,4.87,11.83,11.83,0,0,1-6.75,1.32,10,10,0,0,1-5.82-2.68,10.93,10.93,0,0,1-3.31-10,10.37,10.37,0,0,1,3.86-6.06,9.53,9.53,0,0,1,1.66-1.06C414.07,180,414.28,179.85,414.3,179.88Z" style="fill:#f5f5f5"></path><path d="M460.06,191.58s0-.23-.07-.67-.08-1.12-.14-2q0-.64-.09-1.44c0-.53-.17-1.1-.27-1.73a28.45,28.45,0,0,0-.87-4.25c-.22-.79-.43-1.63-.69-2.5l-1-2.66a21.42,21.42,0,0,0-1.3-2.82,23.13,23.13,0,0,0-1.63-2.93,40.46,40.46,0,0,0-10.61-11.5A44,44,0,0,0,426,151.54a47.12,47.12,0,0,0-10.57-.7,39.91,39.91,0,0,0-11,2,36.89,36.89,0,0,0-18.91,14.26,39.62,39.62,0,0,0-5.43,11.48,49.69,49.69,0,0,0-1.85,13,46.22,46.22,0,0,0,2,12.95A39.81,39.81,0,0,0,386,215.84a28.93,28.93,0,0,0,1.92,2.46l2.09,2.29a42.05,42.05,0,0,0,4.66,3.92,41.09,41.09,0,0,0,5.05,3.18,42.66,42.66,0,0,0,5.37,2.29,43.55,43.55,0,0,0,21.55,1.81,39.19,39.19,0,0,0,17.36-7.4,38.79,38.79,0,0,0,10.35-11.71c.29-.5.6-1,.85-1.48l.7-1.5a25.42,25.42,0,0,0,1.22-2.85l.95-2.69c.25-.87.44-1.72.64-2.51a30.93,30.93,0,0,0,.8-4.27,22.46,22.46,0,0,0,.33-3.17c.06-.83.1-1.49.13-2s.07-.67.07-.67,0,.23,0,.67,0,1.13-.05,2a21.49,21.49,0,0,1-.26,3.19,30.47,30.47,0,0,1-.74,4.31c-.19.8-.37,1.65-.61,2.53l-.92,2.73a24.07,24.07,0,0,1-1.21,2.89c-.22.5-.45,1-.69,1.52s-.56,1-.85,1.5a38.78,38.78,0,0,1-10.39,11.94,39.68,39.68,0,0,1-17.58,7.59,44,44,0,0,1-21.9-1.77,43.24,43.24,0,0,1-5.47-2.31,42.17,42.17,0,0,1-5.15-3.23,43.64,43.64,0,0,1-4.75-4l-2.13-2.33a31.71,31.71,0,0,1-2-2.5,40.08,40.08,0,0,1-5.87-11.55,46.36,46.36,0,0,1-2.05-13.18,50.45,50.45,0,0,1,1.88-13.19,40,40,0,0,1,5.55-11.7,37.46,37.46,0,0,1,19.3-14.5,40.32,40.32,0,0,1,11.22-2,47.31,47.31,0,0,1,10.73.75,44.17,44.17,0,0,1,17.53,7.77,40.64,40.64,0,0,1,10.65,11.71,24.27,24.27,0,0,1,1.62,3,21,21,0,0,1,1.28,2.86l1,2.7c.26.88.45,1.73.66,2.52a28.66,28.66,0,0,1,.81,4.3c.08.63.2,1.21.23,1.74s0,1,.06,1.45c0,.84,0,1.49.06,2S460.06,191.58,460.06,191.58Z" style="fill:#f5f5f5"></path><rect x="36.94" y="163.4" width="98.7" height="102.88" style="fill:#e0e0e0"></rect><rect x="30.25" y="163.4" width="98.7" height="102.88" style="fill:#455a64"></rect><path d="M129,266.31H30.22V163.37H129Z" style="fill:#f5f5f5"></path><rect x="43.52" y="177.23" width="72.16" height="75.22" style="fill:#fff"></rect><path d="M43.52,253A11.37,11.37,0,0,1,41.74,255c-1.15,1.22-2.77,2.86-4.59,4.65s-3.48,3.38-4.71,4.51a11.25,11.25,0,0,1-2.09,1.74,12,12,0,0,1,1.77-2.06c1.15-1.22,2.78-2.87,4.6-4.66s3.49-3.39,4.72-4.52A11.05,11.05,0,0,1,43.52,253Z" style="fill:#e0e0e0"></path><path d="M115.68,252.77a11.78,11.78,0,0,1,2.07,1.78c1.22,1.15,2.86,2.77,4.65,4.58s3.38,3.49,4.51,4.72a12,12,0,0,1,1.74,2.08,11,11,0,0,1-2.06-1.77c-1.22-1.15-2.87-2.77-4.66-4.59s-3.39-3.5-4.52-4.73A11.63,11.63,0,0,1,115.68,252.77Z" style="fill:#e0e0e0"></path><path d="M115.48,177.43a12.36,12.36,0,0,1,1.78-2.07c1.16-1.22,2.78-2.86,4.59-4.65s3.48-3.38,4.72-4.51a12,12,0,0,1,2.08-1.74,11.59,11.59,0,0,1-1.77,2.06c-1.15,1.22-2.78,2.87-4.6,4.66s-3.49,3.39-4.72,4.52A11.05,11.05,0,0,1,115.48,177.43Z" style="fill:#e0e0e0"></path><path d="M43.32,177.61a11.25,11.25,0,0,1-2.07-1.78c-1.22-1.15-2.86-2.77-4.65-4.58s-3.38-3.49-4.51-4.72a12,12,0,0,1-1.74-2.08,11.59,11.59,0,0,1,2.06,1.77c1.22,1.15,2.87,2.77,4.66,4.6s3.39,3.49,4.52,4.72A11.63,11.63,0,0,1,43.32,177.61Z" style="fill:#e0e0e0"></path><path d="M115.48,252.45s0-.13,0-.36,0-.61,0-1.05c0-.95,0-2.3,0-4.06,0-3.57,0-8.75-.07-15.34,0-13.17-.09-31.94-.15-54.41l.28.28-71.95,0h0l.32-.32c0,27.61,0,53.44-.05,75.22l-.27-.27,52.11.14,14.63.07,3.87,0,1,0h.35a1.64,1.64,0,0,1-.31,0h-1l-3.82,0-14.57.08-52.28.14h-.28v-.28c0-21.78,0-47.61,0-75.22v-.32h.33l72,0h.28v.28c-.06,22.55-.11,41.38-.14,54.59,0,6.56-.06,11.72-.07,15.27,0,1.74,0,3.08,0,4,0,.43,0,.77,0,1A1.91,1.91,0,0,1,115.48,252.45Z" style="fill:#e0e0e0"></path><path d="M87.63,230.71A45.39,45.39,0,0,0,81,215.88c-1.16-1.69-2.67-3.44-4.71-3.59a4.68,4.68,0,0,0-4,2.09,9,9,0,0,0-1.41,4.43c-3.48-1.8-7.81-2.42-11.31-.65S54,224.53,55.74,228s6.22,4.52,10.1,5.15a4.36,4.36,0,0,0-1.09,5.35,6.47,6.47,0,0,0,4.73,3.24,9.41,9.41,0,0,0,5.87-.56,33.87,33.87,0,0,0,12.28-10.5" style="fill:#f5f5f5"></path><path d="M101.55,232.5a7.54,7.54,0,0,1-1.54,0c-1-.05-2.43-.17-4.2-.35-3.53-.35-8.26-1-13.74-2s-10.13-2.09-13.56-3c-1.72-.45-3.1-.84-4.05-1.14A8,8,0,0,1,63,225.5a6.26,6.26,0,0,1,1.52.27l4.1.95c3.45.8,8.24,1.84,13.56,2.81s10.17,1.67,13.69,2.14l4.16.55A6.6,6.6,0,0,1,101.55,232.5Z" style="fill:#e0e0e0"></path><path d="M75.74,215.43a4.17,4.17,0,0,1,.59,1,31.19,31.19,0,0,1,1.3,2.86,44.09,44.09,0,0,1,2.71,10.14l0,.25-.23.1-.86.37a52.46,52.46,0,0,0-9.53,5.49c-2.29,1.65-3.6,2.82-3.67,2.74a4.5,4.5,0,0,1,.84-.91c.57-.55,1.44-1.32,2.56-2.2A45,45,0,0,1,79,229.54l.87-.37-.19.34a52,52,0,0,0-2.48-10.07C76.33,217,75.65,215.47,75.74,215.43Z" style="fill:#e0e0e0"></path><path d="M67.12,219.63A17.75,17.75,0,0,1,68.64,222c.91,1.46,2.25,3.43,3.75,5.66l.26.39-.45.11-.9.21c-2.84.66-5.43,1.08-7.29,1.42a18,18,0,0,1-3.05.46,12.15,12.15,0,0,1,2.95-.91c1.85-.45,4.43-.95,7.24-1.6l.89-.21-.19.49c-1.48-2.24-2.78-4.27-3.59-5.79A10.23,10.23,0,0,1,67.12,219.63Z" style="fill:#e0e0e0"></path><path d="M93.63,211.73a45.35,45.35,0,0,0,4.43-15.62c.19-2,.15-4.35-1.32-5.78a4.68,4.68,0,0,0-4.4-1,9,9,0,0,0-3.93,2.49c-1.52-3.61-4.44-6.86-8.26-7.74s-8.39,1.29-9.28,5.11,1.87,7.46,4.45,10.42a4.36,4.36,0,0,0-4.26,3.42,6.44,6.44,0,0,0,1.55,5.51,9.3,9.3,0,0,0,4.87,3.33,33.75,33.75,0,0,0,16.15-.19" style="fill:#f5f5f5"></path><path d="M93.64,191.58a3.86,3.86,0,0,1-.08,1.15,30.86,30.86,0,0,1-.57,3.1,43.62,43.62,0,0,1-3.57,9.87l-.11.22-.24,0-.92-.19a52.93,52.93,0,0,0-11-.94c-2.83,0-4.57.26-4.58.16a4.57,4.57,0,0,1,1.21-.27c.78-.12,1.93-.26,3.35-.35a45.09,45.09,0,0,1,11.1.76l.93.19-.36.17a51.65,51.65,0,0,0,3.72-9.68C93.26,193.17,93.54,191.56,93.64,191.58Z" style="fill:#e0e0e0"></path><path d="M84.63,188.85a12.51,12.51,0,0,1,.17,2.71c0,1.67,0,4,0,6.62v.41l-.41-.11-.75-.21c-2.68-.74-5.1-1.44-6.85-2a14.43,14.43,0,0,1-2.79-1,13,13,0,0,1,2.91.56c1.77.43,4.22,1.07,6.91,1.81l.75.21-.41.3c.06-2.61.14-4.94.23-6.61A11.87,11.87,0,0,1,84.63,188.85Z" style="fill:#e0e0e0"></path><path d="M78.1,191.22s.18.12.48.4l1.28,1.25A28.33,28.33,0,0,1,81.79,195c.74.82,1.57,1.77,2.42,2.87a86.27,86.27,0,0,1,5.64,8,109.4,109.4,0,0,1,5.72,10.51,109.43,109.43,0,0,1,4.5,11.09,84.89,84.89,0,0,1,2.6,9.42c.14.68.28,1.33.4,1.95s.19,1.2.28,1.75c.17,1.09.32,2,.36,2.81s.1,1.3.14,1.78a2.33,2.33,0,0,1,0,.63,2,2,0,0,1-.14-.62c-.07-.47-.15-1.06-.26-1.76s-.27-1.7-.47-2.78l-.32-1.73c-.14-.62-.29-1.26-.45-1.93a94.52,94.52,0,0,0-2.72-9.33c-1.2-3.45-2.73-7.18-4.51-11s-3.77-7.33-5.65-10.47-3.78-5.84-5.49-8C83,197,82.23,196,81.52,195.18s-1.31-1.57-1.84-2.13l-1.19-1.34A2.62,2.62,0,0,1,78.1,191.22Z" style="fill:#e0e0e0"></path></g><g id="freepik--Plants--inject-335"><path d="M461.32,335.71c.08.13-1.61,1.28-4.22,3.27a102,102,0,0,0-9.7,8.36,103.6,103.6,0,0,0-8.53,9.56c-2,2.58-3.22,4.24-3.35,4.16a22.39,22.39,0,0,1,2.79-4.58,74.38,74.38,0,0,1,18.38-18.06A22.15,22.15,0,0,1,461.32,335.71Z" style="fill:#263238"></path><path d="M457.86,321.55c.27.07-.63,4.65-2,10.23s-2.7,10.05-2.95,10,.63-4.65,2-10.23S457.6,321.49,457.86,321.55Z" style="fill:#263238"></path><path d="M456.36,320.78c-.68.3-.88,2-.31,2.78a2.07,2.07,0,0,0,2.64.46,2.24,2.24,0,0,0,.89-3,2.21,2.21,0,0,0-3.3-.2" style="fill:#455a64"></path><path d="M463.55,327.22c.11.24-1.53,1.23-3.67,2.21s-4,1.56-4.08,1.32,1.53-1.24,3.67-2.21S463.44,327,463.55,327.22Z" style="fill:#263238"></path><path d="M463.38,325.62a3.34,3.34,0,0,0-1.3,1.65,1.47,1.47,0,0,0,.78,1.78,1.39,1.39,0,0,0,1.29-.28,2.59,2.59,0,0,0,.75-1.14,2,2,0,0,0,.07-1.45,1,1,0,0,0-1.18-.65" style="fill:#455a64"></path><path d="M463.34,333.85a2,2,0,1,1-.43,0" style="fill:#455a64"></path><path d="M419.62,278.24a21.1,21.1,0,0,1,.24,3.31c.08,2.29.17,5.34.29,9,.21,7.63.42,18.16.6,29.8s.28,22.17.31,29.8c0,3.69,0,6.74,0,9a20.21,20.21,0,0,1-.14,3.32,22.78,22.78,0,0,1-.24-3.31c-.07-2.29-.17-5.34-.29-9-.21-7.63-.42-18.16-.6-29.81s-.28-22.17-.31-29.8c0-3.69,0-6.74,0-9A21.66,21.66,0,0,1,419.62,278.24Z" style="fill:#263238"></path><path d="M434.46,271.88a14.7,14.7,0,1,1-15.82-13.5A14.71,14.71,0,0,1,434.46,271.88Z" style="fill:#FFC100"></path><g style="opacity:0.30000000000000004"><path d="M419.2,287.78a31.65,31.65,0,0,1,.13-4.25,24.35,24.35,0,0,0-1.51-9.9,13.68,13.68,0,0,0-6.64-7.11c-2.33-1.08-4-.93-4-1.12a2.43,2.43,0,0,1,1.16-.15,8.84,8.84,0,0,1,3.12.63,13.52,13.52,0,0,1,7.28,7.38A21.86,21.86,0,0,1,420,283.57C419.76,286.22,419.32,287.8,419.2,287.78Z"></path></g><g style="opacity:0.30000000000000004"><path d="M432.91,267.29c0,.3-4.12,0-8.15,2.65s-5.5,6.51-5.76,6.35a4.93,4.93,0,0,1,.86-2.5,13.11,13.11,0,0,1,10.42-6.74A4.91,4.91,0,0,1,432.91,267.29Z"></path></g><g style="opacity:0.30000000000000004"><path d="M426.34,268.47c-.16,0-.35-1-1.26-2.23a6.64,6.64,0,0,0-10.31-.86c-1.1,1.09-1.46,2.05-1.61,2s0-1.12,1.1-2.45a6.89,6.89,0,0,1,11.4.95C426.51,267.36,426.44,268.47,426.34,268.47Z"></path></g><g style="opacity:0.30000000000000004"><path d="M422.29,271.28c-.29,0-.6-2-1.84-4.09s-2.8-3.41-2.64-3.64,2.14.8,3.48,3.15S422.54,271.3,422.29,271.28Z"></path></g><g style="opacity:0.30000000000000004"><path d="M420.85,266.91c.07.29-1.15.67-2.15,1.65s-1.7,2.12-2,2,.06-1.42,1.28-2.67S420.84,266.67,420.85,266.91Z"></path></g><path d="M388.31,323.36c.25-.08,4.3,11.83,9,26.59s8.35,26.81,8.1,26.89-4.3-11.82-9-26.59S388.05,323.45,388.31,323.36Z" style="fill:#263238"></path><path d="M397.72,352.74c-.17.18-4.3-3.09-9.46-7.06s-9.21-7.4-9-7.63,4.46,2.87,9.63,6.86S397.92,352.52,397.72,352.74Z" style="fill:#263238"></path><path d="M376.94,336.84c-.8.72-.51,2.35.39,3.24s3,.47,3.66-.6a2.42,2.42,0,0,0-.9-3.27,2.65,2.65,0,0,0-3.35.89" style="fill:#455a64"></path><path d="M397.72,317.56c.3.06-.59,4.3-2.34,9.27s-2.83,9.05-3.08,9,.4-4.33,2.15-9.32S397.48,317.51,397.72,317.56Z" style="fill:#263238"></path><path d="M397.26,313.89c-1,.7-1,1.12-1.4,2.27a2.24,2.24,0,0,0,1.34,2.9c1.1.23,2.12-.72,2.59-1.75a3.11,3.11,0,0,0,0-2.95,1.71,1.71,0,0,0-2.63-.29" style="fill:#455a64"></path><path d="M380.41,349.08c-.1-.25,1.64-1.22,3.88-2.16s4.15-1.51,4.26-1.27-1.62,1.22-3.88,2.17S380.51,349.33,380.41,349.08Z" style="fill:#263238"></path><path d="M376.9,347.44c-.68.35-1,2-.92,2.66a2.2,2.2,0,0,0,1,1.67,2.62,2.62,0,1,0-.12-4.33" style="fill:#455a64"></path><path d="M384,320.61a3.49,3.49,0,0,0,6,3.08,2.54,2.54,0,0,0,.68-2,4.06,4.06,0,0,0-3.15-2.9,3.6,3.6,0,0,0-3.56,1.82" style="fill:#455a64"></path><path d="M434.34,335.25c.13.05-.35,1.52-1.16,3.89l-3.25,9.22-3.31,9.19a18.88,18.88,0,0,1-1.56,3.75c-.28-.08,1.37-6.08,3.95-13.27S434.07,335.13,434.34,335.25Z" style="fill:#263238"></path><path d="M450,328.5a12.58,12.58,0,1,1-9.69-14.93A12.57,12.57,0,0,1,450,328.5Z" style="fill:#FFC100"></path><g style="opacity:0.30000000000000004"><path d="M433.56,337.83c-.14-.06.4-1.35,1.09-3.48a20.86,20.86,0,0,0,1.15-8.46,11.77,11.77,0,0,0-3.68-7.42,21.34,21.34,0,0,0-3-1.93c0-.09,1.54,0,3.43,1.4a11.51,11.51,0,0,1,4.21,7.85,18.53,18.53,0,0,1-1.47,8.8C434.43,336.7,433.67,337.88,433.56,337.83Z"></path></g><g style="opacity:0.30000000000000004"><path d="M449.79,324.36c-.05.29-3.39-.92-7.31.25s-6.08,4-6.29,3.75.29-.87,1.28-1.88a11.13,11.13,0,0,1,10.23-3C449.08,323.79,449.84,324.25,449.79,324.36Z"></path></g><g style="opacity:0.30000000000000004"><path d="M444.11,323.72c-.16,0-.08-.88-.54-2.12a5.65,5.65,0,0,0-8.17-3.18c-1.17.6-1.7,1.29-1.83,1.19s.26-.94,1.48-1.79a5.92,5.92,0,0,1,9.19,3.59C444.56,322.86,444.22,323.75,444.11,323.72Z"></path></g><g style="opacity:0.30000000000000004"><path d="M440.1,325.05c-.28-.06-.08-1.79-.58-3.8s-1.42-3.46-1.2-3.64,1.62,1.14,2.16,3.41S440.34,325.13,440.1,325.05Z"></path></g><g style="opacity:0.30000000000000004"><path d="M440,321.1c0,.3-1.1.35-2.14.9s-1.91,1.29-2.12,1.08.35-1.21,1.68-1.95S440.05,320.87,440,321.1Z"></path></g><path d="M405.37,308.86a8.64,8.64,0,0,1,.49,2.09l1,5.73c.78,4.85,1.78,11.55,2.82,18.95s1.94,14.12,2.54,19c.25,2.27.47,4.2.65,5.77a8.47,8.47,0,0,1,.11,2.14,8.62,8.62,0,0,1-.49-2.08c-.26-1.56-.58-3.48-1-5.73-.77-4.85-1.77-11.56-2.82-19s-1.94-14.13-2.54-19c-.25-2.27-.47-4.2-.65-5.77A8.31,8.31,0,0,1,405.37,308.86Z" style="fill:#263238"></path><path d="M416.06,295.63a12.58,12.58,0,1,1-15.51-8.72A12.59,12.59,0,0,1,416.06,295.63Z" style="fill:#FFC100"></path><g style="opacity:0.30000000000000004"><path d="M405.87,311.51a20.56,20.56,0,0,1-.64-3.59,21.08,21.08,0,0,0-2.91-8,11.74,11.74,0,0,0-6.7-4.86,22,22,0,0,0-3.55-.33c0-.07,1.35-.74,3.69-.35a11.54,11.54,0,0,1,7.38,5,18.53,18.53,0,0,1,2.77,8.48A10.14,10.14,0,0,1,405.87,311.51Z"></path></g><g style="opacity:0.30000000000000004"><path d="M414,292c.08.28-3.44.76-6.37,3.62s-3.55,6.33-3.83,6.23c-.12,0-.15-.9.26-2.26a11.15,11.15,0,0,1,7.67-7.41C413.11,291.86,414,291.92,414,292Z"></path></g><g style="opacity:0.30000000000000004"><path d="M408.68,294.11c-.15.06-.49-.74-1.46-1.62a5.65,5.65,0,0,0-8.72,1c-.76,1.07-.91,1.93-1.07,1.9s-.21-.95.48-2.26a5.92,5.92,0,0,1,9.8-1.1C408.67,293.14,408.78,294.09,408.68,294.11Z"></path></g><g style="opacity:0.30000000000000004"><path d="M405.74,297.15c-.27.07-.9-1.55-2.27-3.1s-2.88-2.4-2.76-2.66,2,.26,3.49,2S406,297.11,405.74,297.15Z"></path></g><g style="opacity:0.30000000000000004"><path d="M403.81,293.71c.12.27-.81.82-1.47,1.78s-1.11,2-1.39,1.94-.24-1.23.59-2.5S403.75,293.47,403.81,293.71Z"></path></g><polygon points="407.17 442.7 395.74 360.3 444.9 360.3 434.87 442.7 407.17 442.7" style="fill:#455a64"></polygon><path d="M441.36,392.52c0,.23-9.22.42-20.58.42s-20.57-.19-20.57-.42,9.21-.41,20.57-.41S441.36,392.3,441.36,392.52Z" style="fill:#fafafa"></path><path d="M440.33,397.82c0,.23-8.81.41-19.69.41s-19.69-.18-19.69-.41,8.81-.41,19.69-.41S440.33,397.59,440.33,397.82Z" style="fill:#fafafa"></path><path d="M439.72,402.89c0,.23-8.53.41-19,.41s-19-.18-19-.41,8.52-.41,19-.41S439.72,402.66,439.72,402.89Z" style="fill:#fafafa"></path><path d="M439,408.4c0,.23-8.2.41-18.31.41s-18.32-.18-18.32-.41,8.2-.41,18.32-.41S439,408.17,439,408.4Z" style="fill:#fafafa"></path><path d="M438.43,413.43c0,.23-7.82.41-17.47.41s-17.48-.18-17.48-.41S411.3,413,421,413,438.43,413.2,438.43,413.43Z" style="fill:#fafafa"></path><path d="M437.45,418.46c0,.23-7.53.42-16.82.42s-16.82-.19-16.82-.42,7.53-.41,16.82-.41S437.45,418.24,437.45,418.46Z" style="fill:#fafafa"></path><path d="M437.21,423.5c0,.22-7.32.41-16.35.41s-16.35-.19-16.35-.41,7.32-.42,16.35-.42S437.21,423.27,437.21,423.5Z" style="fill:#fafafa"></path><path d="M436.59,428.53c0,.23-7,.41-15.69.41s-15.7-.18-15.7-.41,7-.41,15.7-.41S436.59,428.3,436.59,428.53Z" style="fill:#fafafa"></path><polygon points="42.12 397.5 48.95 442.45 88.69 442.45 97.91 398.15 42.12 397.5" style="fill:#FFC100"></polygon><path d="M92.35,426.31c0,.13-10.18.23-22.73.23s-22.74-.1-22.74-.23,10.18-.24,22.74-.24S92.35,426.18,92.35,426.31Z" style="fill:#fafafa"></path><path d="M92.51,424.1c0,.13-10.25.23-22.89.23s-22.9-.1-22.9-.23,10.25-.24,22.9-.24S92.51,424,92.51,424.1Z" style="fill:#fafafa"></path><path d="M92.43,421.6c0,.13-10.25.23-22.89.23s-22.9-.1-22.9-.23,10.25-.23,22.9-.23S92.43,421.47,92.43,421.6Z" style="fill:#fafafa"></path><path d="M53.52,439.88a36.08,36.08,0,0,1-1.22-5.66,35.08,35.08,0,0,1-.76-5.73,35.78,35.78,0,0,1,1.22,5.65A35.26,35.26,0,0,1,53.52,439.88Z" style="fill:#fafafa"></path><path d="M56.22,439.41a45.09,45.09,0,0,1-.49-5.53,43.07,43.07,0,0,1-.26-5.53,44.54,44.54,0,0,1,.75,11.06Z" style="fill:#fafafa"></path><path d="M61.15,439.4a26.94,26.94,0,0,1-1-5.66,28.18,28.18,0,0,1-.3-5.74,49.06,49.06,0,0,1,.77,5.69A51.34,51.34,0,0,1,61.15,439.4Z" style="fill:#fafafa"></path><path d="M64.61,439.64a27.65,27.65,0,0,1-.55-5.75,28.66,28.66,0,0,1,.17-5.78,48.49,48.49,0,0,1,.29,5.76A51.08,51.08,0,0,1,64.61,439.64Z" style="fill:#fafafa"></path><path d="M70.73,439.41a31.8,31.8,0,0,1-.42-5.46,32.36,32.36,0,0,1,0-5.48,33.05,33.05,0,0,1,.42,5.46A32.36,32.36,0,0,1,70.73,439.41Z" style="fill:#fafafa"></path><path d="M75.2,439.64a67.91,67.91,0,0,1,.09-11.29,67.91,67.91,0,0,1-.09,11.29Z" style="fill:#fafafa"></path><path d="M79.39,439a75.7,75.7,0,0,1,1.14-11.76,36.74,36.74,0,0,1-.34,5.9A36.91,36.91,0,0,1,79.39,439Z" style="fill:#fafafa"></path><path d="M84.8,438.45a31.24,31.24,0,0,1,2.14-9.86,42.73,42.73,0,0,1-1,4.94A44.16,44.16,0,0,1,84.8,438.45Z" style="fill:#fafafa"></path><path d="M81,308.82a.73.73,0,0,1,0,.22c0,.17-.11.38-.18.64-.19.59-.44,1.4-.76,2.42s-.74,2.34-1.17,3.85-1,3.21-1.43,5.12-1,4-1.55,6.26-1,4.68-1.53,7.24c-1,5.12-1.82,10.79-2.43,16.77s-.85,11.71-.93,16.92c0,2.61,0,5.09.07,7.4s.16,4.48.28,6.44.27,3.75.39,5.31.26,2.9.39,4,.19,1.91.26,2.53c0,.26,0,.48,0,.66a.91.91,0,0,1,0,.22s0-.07,0-.22-.06-.39-.1-.65c-.09-.61-.21-1.45-.35-2.52s-.33-2.43-.47-4-.35-3.34-.46-5.31-.28-4.13-.34-6.45-.1-4.81-.11-7.42c0-5.22.31-11,.89-17s1.5-11.67,2.48-16.8c.53-2.56,1-5,1.58-7.25s1.08-4.35,1.6-6.26,1-3.61,1.51-5.11.87-2.78,1.24-3.82.63-1.82.84-2.4c.09-.26.17-.46.23-.62A.74.74,0,0,1,81,308.82Z" style="fill:#455a64"></path><path d="M73.8,336.65a14.74,14.74,0,0,1,6.18-7.8,3.5,3.5,0,0,1,3.26-.6c1.39.67,1.5,2.62,1.09,4.1a10.91,10.91,0,0,1-4.5,6.13,9.15,9.15,0,0,1-6.75,1.7" style="fill:#455a64"></path><path d="M71.39,355.44c1-3.88,4.12-9.39,7.33-11.79a4.73,4.73,0,0,1,1.67-.89,1.93,1.93,0,0,1,1.78.38,2.74,2.74,0,0,1,.4,2.58A15.64,15.64,0,0,1,71,357.39" style="fill:#455a64"></path><path d="M70.72,372a22.74,22.74,0,0,1,7.4-9.3,3.51,3.51,0,0,1,2.58-.92c1.41.25,2,2,1.92,3.39-.26,2.92-2.49,5.27-4.8,7.09A29.84,29.84,0,0,1,71,375.75" style="fill:#455a64"></path><path d="M71.09,383.87a22.06,22.06,0,0,1,6.3-7.17,4.53,4.53,0,0,1,1.89-.84,1.92,1.92,0,0,1,1.85.7c.63.93,0,2.18-.64,3.08a18,18,0,0,1-9,6.59" style="fill:#455a64"></path><path d="M70.78,379a70.26,70.26,0,0,0-9-9.17c-.51-.43-1.16-.88-1.79-.68a1.35,1.35,0,0,0-.83,1.21,3.62,3.62,0,0,0,.34,1.51,17.48,17.48,0,0,0,11.59,9.75" style="fill:#455a64"></path><path d="M71.07,363.57,64,355a8.66,8.66,0,0,0-2.3-2.18,2.56,2.56,0,0,0-4,2.81,7.39,7.39,0,0,0,1.38,2.83,21.17,21.17,0,0,0,5.15,5.48c2.08,1.43,4,2.35,6.46,2" style="fill:#455a64"></path><path d="M72.05,346.15a24.61,24.61,0,0,0-7.11-10.69,4.28,4.28,0,0,0-1.86-1.08,3.12,3.12,0,0,0-3.24,2.28,5.82,5.82,0,0,0,.64,4.68,12.4,12.4,0,0,0,3.33,3.52,28.66,28.66,0,0,0,7.87,4.24" style="fill:#455a64"></path><path d="M74.88,330.61c-.69-5-3.29-9.15-6.3-13.2-.64-.85-1.52-1.76-2.58-1.6a2,2,0,0,0-1.47,1.27,4.66,4.66,0,0,0-.28,2,15.43,15.43,0,0,0,10,13.79" style="fill:#455a64"></path><path d="M76.86,322.68A40.81,40.81,0,0,1,76.6,315a13.83,13.83,0,0,1,2.57-7.2,5.93,5.93,0,0,1,2.56-2,3.25,3.25,0,0,1,3.15.41A3.44,3.44,0,0,1,86,308.9a8.79,8.79,0,0,1-.79,3c-1.89,4.53-5,9.55-8.31,10.82" style="fill:#455a64"></path><path d="M46.05,328.64a3.91,3.91,0,0,1,0,.63c0,.46,0,1.06,0,1.81s0,1.76,0,2.87.05,2.39.14,3.8c.12,2.81.39,6.15.82,9.85s1.09,7.73,2,11.93,1.94,8.16,3,11.72,2.19,6.73,3.21,9.35c.48,1.32,1,2.49,1.4,3.53s.79,1.92,1.11,2.64l.71,1.67a3.61,3.61,0,0,1,.22.6,3,3,0,0,1-.31-.56c-.2-.41-.46-1-.79-1.63s-.75-1.59-1.18-2.62-1-2.19-1.47-3.51c-1.06-2.62-2.19-5.78-3.31-9.34s-2.15-7.54-3-11.75-1.49-8.28-1.93-12-.64-7.07-.72-9.89c-.07-1.41-.06-2.68-.07-3.8s0-2.09,0-2.88,0-1.35.06-1.81A2.54,2.54,0,0,1,46.05,328.64Z" style="fill:#263238"></path><path d="M47.16,349.13a10.56,10.56,0,0,1,2.52-6.64,2.55,2.55,0,0,1,2.1-1.12c1.09.16,1.58,1.47,1.62,2.56a7.82,7.82,0,0,1-1.74,5.15,6.6,6.6,0,0,1-4.23,2.61" style="fill:#263238"></path><path d="M49.56,362.44c-.14-2.86.78-7.28,2.45-9.61a3.34,3.34,0,0,1,1-1,1.35,1.35,0,0,1,1.29-.12,1.93,1.93,0,0,1,.83,1.66,11.19,11.19,0,0,1-5.38,10.45" style="fill:#263238"></path><path d="M52.67,373.85a16.19,16.19,0,0,1,3-7.93,2.51,2.51,0,0,1,1.56-1.18c1-.13,1.81.9,2,1.89.46,2.05-.56,4.13-1.74,5.86a20.89,20.89,0,0,1-3.9,3.87" style="fill:#263238"></path><path d="M55.48,381.86a15.67,15.67,0,0,1,2.74-6.23,3.39,3.39,0,0,1,1.11-1,1.37,1.37,0,0,1,1.41.09c.63.49.49,1.47.22,2.23a12.79,12.79,0,0,1-4.7,6.42" style="fill:#263238"></path><path d="M54.23,378.64a50.37,50.37,0,0,0-8.11-4.31,1.44,1.44,0,0,0-1.36-.07,1,1,0,0,0-.3,1,2.28,2.28,0,0,0,.55.95,12.47,12.47,0,0,0,10,4.14" style="fill:#263238"></path><path d="M51.09,368q-3.33-2.18-6.67-4.34a5.9,5.9,0,0,0-2-1,1.83,1.83,0,0,0-2.11,2.77,5.35,5.35,0,0,0,1.55,1.63,15.17,15.17,0,0,0,4.69,2.62,6.15,6.15,0,0,0,4.82,0" style="fill:#263238"></path><path d="M48,356a17.63,17.63,0,0,0-7.14-5.74,3,3,0,0,0-1.5-.34,2.24,2.24,0,0,0-1.72,2.25,4.2,4.2,0,0,0,1.45,3.05,9,9,0,0,0,3,1.68,20.36,20.36,0,0,0,6.27,1.19" style="fill:#263238"></path><path d="M46.59,344.79c-1.54-3.26-4.21-5.53-7.13-7.64a2.19,2.19,0,0,0-2.1-.53,1.47,1.47,0,0,0-.73,1.18,3.48,3.48,0,0,0,.24,1.42,11,11,0,0,0,9.79,7.24" style="fill:#263238"></path><path d="M46.23,339a30.44,30.44,0,0,1-1.84-5.21,9.89,9.89,0,0,1,.2-5.45,4.28,4.28,0,0,1,1.31-1.95,2.32,2.32,0,0,1,2.23-.39,2.44,2.44,0,0,1,1.33,1.66,6.13,6.13,0,0,1,.1,2.18c-.31,3.5-1.37,7.59-3.33,9.16" style="fill:#263238"></path><path d="M96.28,328.2a2.64,2.64,0,0,1,.06.63c0,.46,0,1.07.07,1.82s0,1.75,0,2.87,0,2.4-.07,3.81c-.08,2.82-.32,6.17-.72,9.88s-1.06,7.76-1.93,12-2,8.18-3,11.75-2.25,6.73-3.31,9.34c-.5,1.32-1,2.49-1.46,3.52s-.85,1.9-1.19,2.61l-.79,1.64a2.63,2.63,0,0,1-.31.55,5.86,5.86,0,0,1,.22-.59l.71-1.67c.32-.72.71-1.61,1.12-2.65s.92-2.2,1.4-3.53c1-2.62,2.11-5.79,3.2-9.34s2.11-7.52,3-11.72,1.5-8.25,2-11.94.7-7,.82-9.85c.1-1.4.1-2.67.14-3.79s0-2.08,0-2.87,0-1.35,0-1.82A3.91,3.91,0,0,1,96.28,328.2Z" style="fill:#455a64"></path><path d="M95.18,348.69a10.54,10.54,0,0,0-2.53-6.64,2.52,2.52,0,0,0-2.1-1.11c-1.08.16-1.58,1.46-1.62,2.56a7.8,7.8,0,0,0,1.74,5.14,6.59,6.59,0,0,0,4.23,2.61" style="fill:#455a64"></path><path d="M92.77,362c.14-2.87-.78-7.29-2.45-9.61a3.48,3.48,0,0,0-.94-1,1.4,1.4,0,0,0-1.3-.12,2,2,0,0,0-.83,1.67,11.18,11.18,0,0,0,5.38,10.44" style="fill:#455a64"></path><path d="M89.67,373.41a16.3,16.3,0,0,0-3-7.93,2.51,2.51,0,0,0-1.56-1.18c-1-.13-1.81.9-2,1.9-.46,2,.56,4.12,1.74,5.86a21.37,21.37,0,0,0,3.9,3.86" style="fill:#455a64"></path><path d="M86.85,381.43a15.52,15.52,0,0,0-2.74-6.24,3.22,3.22,0,0,0-1.1-1,1.39,1.39,0,0,0-1.42.08c-.63.49-.49,1.48-.22,2.23a12.81,12.81,0,0,0,4.7,6.42" style="fill:#455a64"></path><path d="M88.1,378.2a50.74,50.74,0,0,1,8.11-4.3,1.43,1.43,0,0,1,1.37-.08,1,1,0,0,1,.3,1,2.42,2.42,0,0,1-.56.95,12.44,12.44,0,0,1-10,4.15" style="fill:#455a64"></path><path d="M91.24,367.61l6.67-4.35a6.18,6.18,0,0,1,2-1,2.06,2.06,0,0,1,2.06.63,2,2,0,0,1,0,2.14,5.24,5.24,0,0,1-1.55,1.63,14.86,14.86,0,0,1-4.69,2.62,6.15,6.15,0,0,1-4.82,0" style="fill:#455a64"></path><path d="M94.32,355.53a17.59,17.59,0,0,1,7.15-5.74,3.13,3.13,0,0,1,1.49-.34,2.24,2.24,0,0,1,1.72,2.25,4.15,4.15,0,0,1-1.45,3.05,8.63,8.63,0,0,1-3,1.68,20.32,20.32,0,0,1-6.27,1.2" style="fill:#455a64"></path><path d="M95.74,344.35c1.54-3.26,4.21-5.53,7.13-7.63a2.17,2.17,0,0,1,2.1-.54,1.48,1.48,0,0,1,.73,1.19,3.33,3.33,0,0,1-.24,1.42A11,11,0,0,1,95.67,346" style="fill:#455a64"></path><path d="M96.1,338.52a29.23,29.23,0,0,0,1.84-5.2,9.93,9.93,0,0,0-.2-5.46,4.2,4.2,0,0,0-1.31-1.94,2.3,2.3,0,0,0-2.23-.4,2.44,2.44,0,0,0-1.33,1.66,6.2,6.2,0,0,0-.1,2.19c.31,3.49,1.37,7.58,3.33,9.15" style="fill:#455a64"></path><path d="M37.56,388.6V397a3.31,3.31,0,0,0,3.31,3.31H98.4a3.31,3.31,0,0,0,3.31-3.31V388.6Z" style="fill:#FFC100"></path><g style="opacity:0.4"><polygon points="42.54 400.32 43.02 403 96.11 406.79 97.46 400.32 42.54 400.32"></polygon></g></g><g id="freepik--Character--inject-335"><path d="M251.93,174,242.09,70.64C223.56,63.08,210.5,81.58,208,88.43s-2.34,14.32-2.19,21.6.26,14.77-2.31,21.59c-2.41,6.38-7,11.67-10.44,17.53s-5.91,13.07-3.52,19.45c1.7,4.56,5.79,8.92,4.3,13.56-.55,1.73-1.83,3.13-2.65,4.75a12.08,12.08,0,0,0,.33,10.69,21.19,21.19,0,0,0,7.55,7.93A34.21,34.21,0,0,0,251.93,174Z" style="fill:#ebebeb"></path><path d="M343.12,155.36c-.74-3.93-3.53-7.15-6.54-9.78s-6.38-4.92-8.89-8c-3.87-4.8-5.34-11.09-6.21-17.2s-4.16-13-6.35-18.82S307.5,90,304,86.14l-3,120.78c12.34,0,22.26-4.57,29.62-12.29A31.4,31.4,0,0,0,338,164.94C341.83,164,343.86,159.29,343.12,155.36Z" style="fill:#ebebeb"></path><path d="M292,91.12,241.66,78.27c-16.13-1.74-26.9,18.1-28,34.29-1.17,18-1.89,40,.21,53.41,4.23,27,24.9,30.47,24.9,30.47s-.34,23.93,0,48L294,246.34l6.43-145.58A9.49,9.49,0,0,0,292,91.12Z" style="fill:#ffceb0"></path><path d="M223,134.75a3.45,3.45,0,0,0,3.33,3.5,3.3,3.3,0,0,0,3.57-3.11,3.46,3.46,0,0,0-3.33-3.5A3.3,3.3,0,0,0,223,134.75Z" style="fill:#263238"></path><path d="M220,123c.43.45,3.05-1.49,6.78-1.47s6.45,1.89,6.85,1.43c.2-.2-.23-1-1.42-1.88a9.51,9.51,0,0,0-5.49-1.71,9.12,9.12,0,0,0-5.39,1.73C220.18,121.93,219.79,122.74,220,123Z" style="fill:#263238"></path><path d="M259.73,136.12a3.45,3.45,0,0,0,3.33,3.5,3.3,3.3,0,0,0,3.57-3.11,3.46,3.46,0,0,0-3.32-3.5A3.31,3.31,0,0,0,259.73,136.12Z" style="fill:#263238"></path><path d="M257.29,123.8c.43.45,3.06-1.49,6.78-1.47s6.45,1.89,6.86,1.43c.2-.2-.23-1-1.43-1.88a9.48,9.48,0,0,0-5.48-1.71,9.15,9.15,0,0,0-5.4,1.73C257.48,122.78,257.08,123.59,257.29,123.8Z" style="fill:#263238"></path><path d="M243,152.38c0-.21-2.3-.62-6.05-1.1-.95-.11-1.85-.3-2-.94a4.88,4.88,0,0,1,.64-2.82l2.83-7.24c3.93-10.3,6.78-18.77,6.36-18.92s-3.94,8.07-7.87,18.37c-.94,2.54-1.85,5-2.71,7.28-.36,1.08-1,2.3-.5,3.73a2.4,2.4,0,0,0,1.56,1.39,6.42,6.42,0,0,0,1.62.23C240.67,152.57,243,152.59,243,152.38Z" style="fill:#263238"></path><path d="M238.81,196.44s19.7,1.22,37.71-9.56c0,0-10.71,19-37.71,16.38Z" style="fill:#eb996e"></path><path d="M244.58,161.36a6.71,6.71,0,0,1,6-2.48,6.13,6.13,0,0,1,4.23,2.28,3.89,3.89,0,0,1,.29,4.44c-1,1.41-3.11,1.73-4.89,1.22a14,14,0,0,1-4.75-2.85,4.1,4.1,0,0,1-1.06-1.1,1.25,1.25,0,0,1,0-1.39" style="fill:#eb996e"></path><path d="M254.69,116c.37,1,4.09.54,8.46,1.08s7.9,1.73,8.48.83c.26-.44-.35-1.39-1.78-2.38A14.84,14.84,0,0,0,257,114.1C255.35,114.74,254.54,115.54,254.69,116Z" style="fill:#f5f5f5"></path><path d="M220.17,108.83c.81.85,4,0,7.82-.06s7.06.59,7.81-.3c.33-.43-.18-1.27-1.59-2.08a12.84,12.84,0,0,0-6.36-1.4,12.56,12.56,0,0,0-6.24,1.69C220.26,107.55,219.81,108.42,220.17,108.83Z" style="fill:#f5f5f5"></path><path d="M265.86,118.28A30.62,30.62,0,0,1,271,120a29.67,29.67,0,0,1,4.5,3,10.6,10.6,0,0,0-4.29-3.44A10.71,10.71,0,0,0,265.86,118.28Z" style="fill:#eb996e"></path><path d="M217.29,121.76a18.3,18.3,0,0,1,3.46-2.42,17.71,17.71,0,0,1,4.08-1.11,7.83,7.83,0,0,0-7.54,3.53Z" style="fill:#eb996e"></path><path d="M322.84,162.94c.15-15.69-4-31.28-6.14-46.83-.86-6.28-1.75-12.66-4.38-18.42-3.74-8.15-10.7-14.39-18.07-19.5-8.47-5.87-17.93-10.63-28.11-12.2s-21.18.36-29.3,6.7c-1.26,1-2.52,2.2-2.76,3.78-1,3.84.88,5.45,3.07,8.77s5.25,6,8.27,8.54l14.48,12.39a108.56,108.56,0,0,0,10.65,8.37,108.9,108.9,0,0,0,10.51,5.87l11.16,5.7a4.32,4.32,0,0,1,3.08,4.25c1.19,10.49,1.09,22,1.75,32.58.75,12-8.93,45.4-8.93,45.4L306,206.55c7.93-1.79,15.74-11.62,16.86-19.67C323.89,179.35,322.78,169.06,322.84,162.94Z" style="fill:#ebebeb"></path><path d="M294,137.72c.29-5.74,6.54-9.57,11.52-6.7,2.73,1.58,4.82,4.76,4.57,10.85-.67,16.26-16.85,12.23-16.86,11.77C293.25,153.35,293.69,144.44,294,137.72Z" style="fill:#ffceb0"></path><path d="M298.48,147.68c.07-.05.27.21.74.45a2.87,2.87,0,0,0,2.12.13c1.74-.56,3.3-3.22,3.5-6.15a9.35,9.35,0,0,0-.63-4.09,3.25,3.25,0,0,0-2-2.26,1.45,1.45,0,0,0-1.7.71c-.24.44-.15.77-.24.8s-.33-.29-.17-1a1.78,1.78,0,0,1,.68-1,2.13,2.13,0,0,1,1.58-.35,4,4,0,0,1,2.85,2.64,9.64,9.64,0,0,1,.8,4.58c-.24,3.27-2,6.26-4.42,6.85a3,3,0,0,1-2.57-.54C298.49,148.08,298.42,147.71,298.48,147.68Z" style="fill:#eb996e"></path><path d="M304,154.73a3.19,3.19,0,1,1-3.19-3.19A3.19,3.19,0,0,1,304,154.73Z" style="fill:#263238"></path><path d="M221.39,145.61c-3.12-.34-7-1-8.14-2.08-1.72-1.62-3.49-7.64-5-13.31-.19-.72-.32-1.21-.37-1.35l1.19-.46a15.37,15.37,0,0,1,.43,1.52c.81,3,3,11.14,4.66,12.74,2,1.89,18.67,2.86,20.21,1.78,1-.77,3.22-8,4.51-12.91l.12-.44,6.63-.19.16.42c1.31,3.31,5.33,12.26,8.25,13.93,3.65,2.08,17.86,1.08,18.93-.35.92-1.22,3.4-9.66,4.84-15l.13-.47,20.23.81,0,1.22-19.2-.77c-.72,2.66-3.65,13.3-4.91,15-1.71,2.28-16.95,2.78-20.64.68-3.54-2-7.73-11.95-8.63-14.15l-4.74.13c-.74,2.77-3.27,11.88-4.81,13.1s-9.78.57-10.73.5C223.67,145.83,222.59,145.74,221.39,145.61Z" style="fill:#455a64"></path><path d="M246,133.05l-1.3-2.12c8.75-4.81,24.33-6.81,34.24-1.64l-1.22,2.14C268.9,126.83,254.2,128.55,246,133.05Z" style="fill:#455a64"></path><path d="M208.68,130.13l-1-2.28c10.62-4,24.31-2.71,32.54,3.14l-1.53,2C231.28,127.66,218.36,126.45,208.68,130.13Z" style="fill:#455a64"></path><path d="M258.8,158.52c.12.43-3.47,1.77-7.68,3.82s-7.5,4-7.76,3.65,2.72-3,7.08-5.05S258.69,158.12,258.8,158.52Z" style="fill:#263238"></path><path d="M301.39,199.11a51.77,51.77,0,0,0,6.89-2,29.65,29.65,0,0,0,7.23-4.17,28.89,28.89,0,0,0,3.82-3.53,27.72,27.72,0,0,0,7.18-17.33,29,29,0,0,0-3.12-14.75l-.46-.89-.52-.87c-.35-.58-.73-1.15-1.13-1.72a24,24,0,0,1-2.27-3.78,9.24,9.24,0,0,1-.73-4.61c.11-1.54.45-3,.54-4.43a29.13,29.13,0,0,0-4.22-17.24,42.12,42.12,0,0,0-12.39-13.13,81.17,81.17,0,0,0-15-8.13c-5-2.16-9.94-3.94-14.51-5.69s-8.82-3.46-12.59-5.27a64.27,64.27,0,0,1-9.8-5.62,29.23,29.23,0,0,1-6.19-5.9,17.58,17.58,0,0,1-2.62-4.72,9.61,9.61,0,0,1-.4-1.35c-.07-.3-.1-.46-.07-.47a13.76,13.76,0,0,1,.76,1.7,20,20,0,0,0,2.81,4.47,29.62,29.62,0,0,0,6.22,5.55,65.12,65.12,0,0,0,9.76,5.34c3.76,1.73,8,3.37,12.57,5.06s9.52,3.43,14.62,5.57a82.13,82.13,0,0,1,15.32,8.21A43.41,43.41,0,0,1,316,123a30.52,30.52,0,0,1,4.39,18.17c-.11,1.55-.45,3-.55,4.4a7.81,7.81,0,0,0,.59,3.91,22.33,22.33,0,0,0,2.11,3.54c.4.58.8,1.18,1.16,1.8l.54.92.49.94a30.2,30.2,0,0,1,3.13,15.48,28.71,28.71,0,0,1-4.09,13.13,27.59,27.59,0,0,1-3.66,4.79,28.29,28.29,0,0,1-4,3.56,29.45,29.45,0,0,1-7.54,4,27.65,27.65,0,0,1-5.24,1.3A9.07,9.07,0,0,1,301.39,199.11Z" style="fill:#fff"></path><path d="M310.2,105c-.05,0-.22-.19-.5-.62s-.68-1.06-1.23-1.84a27.31,27.31,0,0,0-5.63-5.75,39.39,39.39,0,0,0-10.53-5.59A91.46,91.46,0,0,0,278,87.67a147.06,147.06,0,0,1-14.65-3.12A45.84,45.84,0,0,1,252,79.72a27.68,27.68,0,0,1-6.4-5.3,8.48,8.48,0,0,1-1.73-2.5c.22-.21,2.68,3.5,8.69,6.85a49.14,49.14,0,0,0,11.15,4.4c4.37,1.2,9.33,2,14.54,3a83.89,83.89,0,0,1,14.56,3.71,37.87,37.87,0,0,1,10.72,6.08A24,24,0,0,1,309,102.2a14,14,0,0,1,1,2C310.17,104.71,310.25,105,310.2,105Z" style="fill:#fff"></path><path d="M212.41,100c-.17,0-.17-2.22.78-5.63a23.85,23.85,0,0,1,.92-2.74,31.47,31.47,0,0,1,1.36-3A34.14,34.14,0,0,1,225.19,77,32.87,32.87,0,0,1,228,75.16a23.2,23.2,0,0,1,2.54-1.38c3.19-1.53,5.36-1.91,5.41-1.75S234,73,231,74.75c-.74.44-1.54.91-2.36,1.5s-1.67,1.22-2.57,1.91a38.34,38.34,0,0,0-9.34,11.14c-.52,1-1.05,1.93-1.43,2.86s-.77,1.78-1.07,2.58C213.06,98,212.67,100.07,212.41,100Z" style="fill:#fff"></path><path d="M280.4,217.23s.16-.25.48-.66a3.56,3.56,0,0,0,.9-1.89,1.64,1.64,0,0,0-.4-1.27,10.5,10.5,0,0,0-1.39-1,2,2,0,0,1-.66-.84,1.79,1.79,0,0,1-.06-1.12,5.13,5.13,0,0,1,1.06-1.9,3,3,0,0,0,.76-1.73,2.26,2.26,0,0,0-.81-1.51,11.55,11.55,0,0,1-1.22-1.31,2.4,2.4,0,0,1-.48-1.56,2.69,2.69,0,0,1,1.08-2c.46-.31.78-.32.78-.29s-.28.12-.65.45a2.57,2.57,0,0,0-.84,1.86,2,2,0,0,0,.46,1.3,12.55,12.55,0,0,0,1.21,1.22,2.72,2.72,0,0,1,1,1.84,3.44,3.44,0,0,1-.85,2,4.79,4.79,0,0,0-1,1.7,1.32,1.32,0,0,0,.52,1.47,9.83,9.83,0,0,1,1.42,1.1,2,2,0,0,1,.43,1.6,3.57,3.57,0,0,1-1.1,2C280.66,217.08,280.42,217.26,280.4,217.23Z" style="fill:#eb996e"></path><path d="M276.76,216.55s.16-.26.48-.66a3.63,3.63,0,0,0,.89-1.9,1.64,1.64,0,0,0-.39-1.27,10.5,10.5,0,0,0-1.39-1,1.8,1.8,0,0,1-.73-2,5.23,5.23,0,0,1,1.07-1.9,3,3,0,0,0,.76-1.73,2.3,2.3,0,0,0-.81-1.5,12.46,12.46,0,0,1-1.22-1.31,2.37,2.37,0,0,1-.48-1.57,2.62,2.62,0,0,1,1.08-2,1.17,1.17,0,0,1,.78-.3,7.38,7.38,0,0,0-.66.46,2.52,2.52,0,0,0-.83,1.85,2,2,0,0,0,.45,1.3,12.76,12.76,0,0,0,1.22,1.23,2.71,2.71,0,0,1,1,1.83,3.44,3.44,0,0,1-.85,2,4.78,4.78,0,0,0-1,1.71,1.33,1.33,0,0,0,.53,1.47,9.59,9.59,0,0,1,1.41,1.1,2,2,0,0,1,.44,1.59,3.53,3.53,0,0,1-1.11,2A2.63,2.63,0,0,1,276.76,216.55Z" style="fill:#eb996e"></path><path d="M263.18,160.79a4.92,4.92,0,0,0-3.46-3.77c0-.06.34-.13.86,0a3.59,3.59,0,0,1,1.79,1.07,3.54,3.54,0,0,1,.9,1.86C263.34,160.47,263.24,160.79,263.18,160.79Z" style="fill:#eb996e"></path><path d="M265.39,158.27c-.14,0-.53-.74-1.3-1.46s-1.58-1.07-1.53-1.21,1,0,1.89.83S265.53,158.24,265.39,158.27Z" style="fill:#eb996e"></path><path d="M274.36,157.46a6.46,6.46,0,0,1-2.33,0,16,16,0,0,1-9.87-5,6.67,6.67,0,0,1-1.35-1.9,19.36,19.36,0,0,0,13.55,6.89Z" style="fill:#eb996e"></path><path d="M234.09,155.75a4.84,4.84,0,0,1-.32,1.91,13.17,13.17,0,0,1-2.13,4.17,13.31,13.31,0,0,1-3.45,3.18,5.16,5.16,0,0,1-1.75.82,22.24,22.24,0,0,0,4.78-4.31A21.71,21.71,0,0,0,234.09,155.75Z" style="fill:#eb996e"></path><path d="M327.11,326.09l35.37-2.17s-.54-61.64-10.82-77.58c-8.39-13-43.72-21.42-43.72-21.42L295.6,211l-27.8,29.75-9-.46-20.11-29.74-16.61,14.08s-42.86,5.85-50.08,18.73-21.49,48.77-21.49,48.77l31.14,20.8c7.31,25.07,6.71,21.89,6.71,21.89l6.44,26.67c-.63,9.24,4.48,24.8,4.48,24.8C200.93,396.53,184,442.7,184,442.7H340.57l-20.28-35.92Z" style="fill:#FFC100"></path><g style="opacity:0.30000000000000004"><path d="M193.69,356.05c24.09,10.65,50.71,9.64,77.05,9.2,3.78-.06,7.89,0,10.83,2.37,3.41,2.77,4,7.65,4.36,12,1,13.29,2,26.93,7.54,39s16.94,22.54,30.26,22.88c4.37.12,9.3-1.25,11.33-5.12,1.25-2.38,1.15-5.22.8-7.89-1.68-12.95-8.26-24.71-15.37-35.67s-14.92-21.62-19.61-33.81c-2.44-6.35-4.05-13.15-8-18.68-7.53-10.54-21.56-13.95-34.47-15a162.59,162.59,0,0,0-68.14,8.92"></path></g><path d="M287.52,248.71c-.1-.1,4.33-5.08,9.9-11.12s10.18-10.87,10.28-10.77-4.32,5.07-9.9,11.12S287.63,248.81,287.52,248.71Z" style="fill:#263238"></path><path d="M349.1,246.29c0,.11-2,.43-5.15,1.62a26.92,26.92,0,0,0-2.49,1.1c-.9.4-1.79.94-2.75,1.49a34.13,34.13,0,0,0-10.32,9.75c-.59.93-1.19,1.79-1.64,2.66a25.29,25.29,0,0,0-1.23,2.43c-1.37,3-1.8,5.08-1.91,5.05a7.22,7.22,0,0,1,.29-1.43,12.65,12.65,0,0,1,.48-1.65,22.54,22.54,0,0,1,.8-2.12,23.09,23.09,0,0,1,1.19-2.49A31.49,31.49,0,0,1,328,260a32.73,32.73,0,0,1,10.47-9.9,31.57,31.57,0,0,1,2.8-1.46,23.05,23.05,0,0,1,2.55-1.05,20.92,20.92,0,0,1,2.17-.68,12.46,12.46,0,0,1,1.67-.39A7.22,7.22,0,0,1,349.1,246.29Z" style="fill:#263238"></path><path d="M275,403.55a3.2,3.2,0,0,1-.7.06l-2,.09c-.87,0-1.94.06-3.19,0s-2.66,0-4.23-.11-3.28-.16-5.11-.35-3.79-.41-5.85-.68a113.64,113.64,0,0,1-26-6.93c-1.91-.8-3.74-1.53-5.4-2.33s-3.22-1.52-4.62-2.24-2.63-1.41-3.71-2-2-1.15-2.75-1.62l-1.71-1.08a5.3,5.3,0,0,1-.58-.4,3.09,3.09,0,0,1,.64.31c.44.26,1,.58,1.75,1s1.68,1,2.79,1.55,2.33,1.27,3.74,1.94,2.94,1.45,4.62,2.18,3.5,1.49,5.41,2.27a131,131,0,0,0,12.76,4.18A133.42,133.42,0,0,0,254,402.13c2.05.28,4,.57,5.82.72s3.53.32,5.09.41,3,.14,4.22.18,2.31.06,3.18.05l2,0A3.45,3.45,0,0,1,275,403.55Z" style="fill:#263238"></path><path d="M265.86,410a10.17,10.17,0,0,1-1.76-.22l-4.75-.77c-4-.63-9.58-1.41-15.74-2s-11.78-1-15.84-1.21l-4.81-.22a11.51,11.51,0,0,1-1.76-.14,12.37,12.37,0,0,1,1.77-.07c1.14,0,2.78,0,4.82.07,4.07.1,9.69.41,15.87,1.05s11.74,1.49,15.75,2.21c2,.36,3.62.68,4.73.93A13.61,13.61,0,0,1,265.86,410Z" style="fill:#263238"></path><g style="opacity:0.30000000000000004"><path d="M284.88,251.65a6.65,6.65,0,0,0,5-.31,16,16,0,0,0,3.52-3.1c5.11-5.5,10.22-11.5,11.91-18.82l-7.14,7.84c-5,5.54-8.1,9-13.27,14.39"></path></g><g style="opacity:0.30000000000000004"><path d="M192,430.5a35.57,35.57,0,0,0,11-1.19c3.06-.82,6.12-2.14,8.17-4.55,2.35-2.76,3-6.54,3.4-10.15a76.7,76.7,0,0,0-.78-20.58,25.75,25.75,0,0,1,8.11.82c-.48-2.13-2.76-3.31-4.89-3.8s-3.26-2.24-5.09-3.42c-2.79-1.79-2.16-4.43-2.75-7.69-1.05-5.84-1.53-12.38-2.59-18.21-4.92,17.85-4.64,57.14-14.59,68.77"></path></g><path d="M155,333.88s.38,4.63.79,10.18.71,57.84,2.05,63.95c1.7,7.75,13,22,21.08,23.09,13.63,1.87,23.31-2.82,24.36-20.43.39-6.47,4.39-65.19,4.39-65.19l1.08-25.13s-27.94-7.53-29.47-7.92S155,333.88,155,333.88Z" style="fill:#ffceb0"></path><path d="M178.92,335.87a5.13,5.13,0,0,1-2.24,2.83,5.24,5.24,0,0,1-3.41,1.18,26.41,26.41,0,0,0,3.11-1.61A24.78,24.78,0,0,0,178.92,335.87Z" style="fill:#eb996e"></path><path d="M189,410.67a3.5,3.5,0,0,1,.25-.7c.17-.46.5-1.1.78-2a34.2,34.2,0,0,0,1.77-7.62,47.37,47.37,0,0,0-.17-11.59,79.9,79.9,0,0,0-3.23-13.86c-1.56-4.81-3.28-9.33-4.77-13.47s-2.73-7.9-3.59-11.12a67.79,67.79,0,0,1-1.64-7.71c-.15-.92-.2-1.64-.25-2.13a3.75,3.75,0,0,1-.05-.74,3.52,3.52,0,0,1,.15.73c.09.48.17,1.2.35,2.11a77.45,77.45,0,0,0,1.8,7.64c.89,3.2,2.17,6.94,3.69,11.06s3.24,8.64,4.81,13.47a77.62,77.62,0,0,1,3.2,14,45.4,45.4,0,0,1,.06,11.7,31.68,31.68,0,0,1-1.94,7.64c-.31.88-.68,1.51-.87,2A3.31,3.31,0,0,1,189,410.67Z" style="fill:#eb996e"></path><path d="M173.27,232.74l10.5,38.19-5.71,37.86,7.1,45.62s37,1.52,58.89,1.28c21.35-.22,35.67-.57,48.61,1L282,310.08l7.2-39.35-9.58-42.59s-15.65,5.28-35.85,1.23S185.57,225.83,173.27,232.74Z" style="fill:#fafafa"></path><path d="M173.27,232.74l1.76-.86c.29-.13.62-.32,1-.45l1.25-.44,1.46-.51c.52-.18,1.1-.3,1.71-.47A109.23,109.23,0,0,1,202,227c4.69-.29,9.89-.36,15.57-.26A180.91,180.91,0,0,1,235.87,228c1.63.24,3.29.41,5,.72l5.08.89c1.71.33,3.47.5,5.25.73s3.59.31,5.43.35a80.18,80.18,0,0,0,11.31-.43,63.13,63.13,0,0,0,11.62-2.28l.23-.07.05.23c2.94,13,6.19,27.43,9.61,42.59v.09c-2.3,12.61-4.71,25.78-7.19,39.36V310c3.18,13.86,6.48,28.26,9.86,43,.28,1.22.56,2.43.83,3.62l.08.36-.37,0A236.76,236.76,0,0,0,264,355.76c-9.41,0-18.64.24-27.65.2-18-.13-35.18-.7-51.17-1.32H185l0-.19c-2.56-16.59-4.93-31.87-7.06-45.63v-.06c2.19-14.4,4.13-27.1,5.76-37.85V271c-3.3-12.09-5.9-21.66-7.68-28.21l-2-7.46c-.22-.84-.39-1.47-.5-1.91s-.17-.65-.17-.65.08.23.2.66l.55,1.93c.48,1.7,1.18,4.21,2.09,7.47,1.81,6.52,4.46,16.05,7.8,28.1V271c-1.61,10.74-3.51,23.45-5.67,37.85v-.05c2.15,13.76,4.54,29,7.14,45.62l-.22-.2c16,.6,33.13,1.16,51.15,1.28,9,0,18.23-.19,27.64-.22a238.41,238.41,0,0,1,28.73,1.19l-.29.32-.83-3.63c-3.37-14.72-6.67-29.12-9.85-43V310l7.21-39.35v.09l-9.56-42.59.28.16a64.38,64.38,0,0,1-11.71,2.28,82.36,82.36,0,0,1-11.36.41c-1.85,0-3.67-.22-5.46-.36s-3.56-.41-5.27-.75l-5.08-.9c-1.66-.31-3.32-.48-4.94-.72a181.09,181.09,0,0,0-18.3-1.28c-5.66-.11-10.87-.06-15.55.22a110.16,110.16,0,0,0-21.51,2.89c-.6.16-1.18.28-1.71.45l-1.46.49-1.25.42c-.37.14-.69.31-1,.44Z" style="fill:#263238"></path><polygon points="184.16 270.91 178.36 308.16 281.46 310.11 288.58 272.25 184.16 270.91" style="fill:#ebebeb"></polygon><path d="M263.12,311.38c0,.15-13.44-.32-30-1s-30-1.41-30-1.55,13.44.32,30,1S263.12,311.24,263.12,311.38Z" style="fill:#263238"></path><path d="M246.66,270.93c0,.15-8.81.22-19.68.16s-19.67-.21-19.67-.36,8.81-.21,19.68-.16S246.66,270.79,246.66,270.93Z" style="fill:#263238"></path><path d="M243.8,267c-.09.11-6.76-5.43-14.9-12.36S214.25,242,214.34,241.84s6.76,5.43,14.9,12.36S243.9,266.85,243.8,267Z" style="fill:#e0e0e0"></path><path d="M248.36,345.46c-.11.1-4-4.18-8.74-9.54s-8.46-9.79-8.36-9.88,4,4.17,8.75,9.54S248.47,345.37,248.36,345.46Z" style="fill:#e0e0e0"></path><path d="M240,344.51a33.13,33.13,0,0,1-4.63-3.68,34.35,34.35,0,0,1-4.29-4.07,33.13,33.13,0,0,1,4.63,3.68A34.35,34.35,0,0,1,240,344.51Z" style="fill:#e0e0e0"></path><path d="M284.56,279.48c-4.16-1.06-5.63-7.38-1.49-8.54a15.41,15.41,0,0,1,6.1-.21c10.53,1.34,25.32,4.46,29.8,7.16s9,3.82,5.83,11c0,0,3,1.93,1.41,8.26a8.29,8.29,0,0,1-4.55,5.18s1.35,4-.66,7.08a14.42,14.42,0,0,1-3.82,4.35c0,3-.24,5.26-1.12,6.05,0,0-10.09,11.43-15.91,11.21s-8.07-1-9.41-6-1.8-8.58.67-11c0,0-4.75-2.12-4.75-5.7a5.47,5.47,0,0,1,3.23-4.91s-6.1.3-6.77-1.05-1.57-4.48.22-6.27,9.07-3.81,9.07-3.81-16.54-1.76-18.55-3.33-3.14-5.6,1.12-6.94,17.55-.47,17.55-.47Z" style="fill:#ffceb0"></path><path d="M307.94,307.84a21.42,21.42,0,0,1-3.19-.94c-1.95-.64-4.64-1.56-7.59-2.61a35.06,35.06,0,0,0-4.16-1.36,5,5,0,0,0-3.32.68,8.34,8.34,0,0,0-2.4,2.18,2.15,2.15,0,0,1,.41-.81,6,6,0,0,1,1.81-1.69,7.36,7.36,0,0,1,1.57-.71,4.21,4.21,0,0,1,2-.12,30,30,0,0,1,4.25,1.34c3,1.05,5.62,2,7.54,2.75A21.12,21.12,0,0,1,307.94,307.84Z" style="fill:#eb996e"></path><path d="M298,316.18a8,8,0,0,1-1.79-.41,38.72,38.72,0,0,1-4.22-1.36,10.67,10.67,0,0,1-3.81-2.33,2.85,2.85,0,0,1-.93-1.61c.09,0,.36.62,1.18,1.35a12.69,12.69,0,0,0,3.76,2.11c1.58.63,3.07,1.1,4.14,1.49A5.89,5.89,0,0,1,298,316.18Z" style="fill:#eb996e"></path><path d="M314.44,297.14c-.06.09-1.09-.68-3-1.48a23.22,23.22,0,0,0-3.4-1.14c-1.32-.32-2.78-.6-4.34-.82-3.11-.41-6-.61-8-.87-1-.13-1.86-.25-2.43-.37a2.79,2.79,0,0,1-.87-.22,30.8,30.8,0,0,1,3.33.22c2.06.17,4.91.31,8.05.73a38.38,38.38,0,0,1,4.39.86,20.23,20.23,0,0,1,3.43,1.27,10.74,10.74,0,0,1,1.24.66,6.26,6.26,0,0,1,.89.58C314.21,296.91,314.46,297.11,314.44,297.14Z" style="fill:#eb996e"></path><path d="M316.94,287.35a32.26,32.26,0,0,1-3.62-1.12c-2.21-.72-5.3-1.65-8.76-2.47s-6.63-1.39-8.93-1.75a34,34,0,0,1-3.73-.63,4.19,4.19,0,0,1,1,0c.65,0,1.59.12,2.76.25a79.54,79.54,0,0,1,9,1.61,78.51,78.51,0,0,1,8.76,2.63c1.1.4,2,.75,2.58,1A4.43,4.43,0,0,1,316.94,287.35Z" style="fill:#eb996e"></path><path d="M293.1,329.34s2.14,77.38,4.15,83.62,14.23,23.67,25.67,25.49,19.51-4.17,22.63-12.49,11.7-101.72,11.7-101.72l-33.82,0-.72,11.54-6.49-22.82Z" style="fill:#ffceb0"></path><path d="M345.06,404.89a6.19,6.19,0,0,1,.2-.81c.08-.26.17-.58.25-1s.19-.84.27-1.35a28.07,28.07,0,0,0,.1-8.71,44.47,44.47,0,0,0-3.77-12.36c-2-4.47-4.72-9.13-7.33-14.16s-4.87-9.95-6.7-14.51-3.23-8.76-4.36-12.29-2-6.42-2.56-8.41c-.27-1-.49-1.73-.65-2.3a6.19,6.19,0,0,1-.2-.81,4.3,4.3,0,0,1,.3.78c.18.56.43,1.32.75,2.27.65,2,1.58,4.86,2.71,8.35s2.62,7.69,4.46,12.23,4.11,9.43,6.71,14.46,5.32,9.69,7.31,14.2a43.79,43.79,0,0,1,3.7,12.51,26.75,26.75,0,0,1-.27,8.79,12.7,12.7,0,0,1-.32,1.34,8.23,8.23,0,0,1-.3,1A4.3,4.3,0,0,1,345.06,404.89Z" style="fill:#eb996e"></path><path d="M302.89,323.2a10.69,10.69,0,0,1-5.64-7.41,36.89,36.89,0,0,0,2.38,4A39.3,39.3,0,0,0,302.89,323.2Z" style="fill:#eb996e"></path><path d="M313.33,318c-.15,0-.31-1.26-1-2.64s-1.55-2.3-1.44-2.41a4.17,4.17,0,0,1,1.91,2.19A4.1,4.1,0,0,1,313.33,318Z" style="fill:#eb996e"></path><path d="M304.25,333.86a4.7,4.7,0,0,1-1.9.15,13.37,13.37,0,0,1-4.49-1,13.52,13.52,0,0,1-3.91-2.45,4.75,4.75,0,0,1-1.24-1.44,23.44,23.44,0,0,0,5.34,3.41A23,23,0,0,0,304.25,333.86Z" style="fill:#eb996e"></path><path d="M317.18,313.75a6,6,0,0,1,.17,2.41,16.28,16.28,0,0,1-1.44,5.64,11,11,0,0,1-3.8,4.41,5.64,5.64,0,0,1-2.19,1c0-.08.81-.44,2-1.31a11.84,11.84,0,0,0,3.55-4.33,18.84,18.84,0,0,0,1.54-5.46C317.16,314.67,317.09,313.76,317.18,313.75Z" style="fill:#eb996e"></path><path d="M179.62,289.17c4.17-1.05,5.63-7.38,1.49-8.54a15.62,15.62,0,0,0-6.1-.2c-10.53,1.34-25.32,4.46-29.8,7.16s-9,3.82-5.82,11c0,0-3,1.92-1.42,8.26a8.35,8.35,0,0,0,4.55,5.18s-1.35,4,.67,7.08a14.26,14.26,0,0,0,3.82,4.35c0,3-.18,5.52.6,6.74,0,0,2.9,8.73,16.42,10.51,5.79.76,8.07-1,9.42-6s1.79-8.57-.68-11c0,0,4.75-2.11,4.75-5.7a5.48,5.48,0,0,0-3.22-4.91s6.09.31,6.76-1,1.57-4.48-.22-6.27-9.06-3.81-9.06-3.81,16.53-1.76,18.55-3.33,3.13-5.6-1.12-6.95-17.56-.46-17.56-.46Z" style="fill:#ffceb0"></path><path d="M156.24,317.54a19.82,19.82,0,0,1,3.07-1.29c1.92-.73,4.59-1.71,7.54-2.76a32.81,32.81,0,0,1,4.25-1.34,4.21,4.21,0,0,1,2,.13,6.32,6.32,0,0,1,1.57.71,5.65,5.65,0,0,1,1.81,1.69,2,2,0,0,1,.41.8,8.4,8.4,0,0,0-2.4-2.17,4.94,4.94,0,0,0-3.32-.68A36.05,36.05,0,0,0,167,314c-3,1-5.64,2-7.6,2.62A23.06,23.06,0,0,1,156.24,317.54Z" style="fill:#eb996e"></path><path d="M166.15,325.88a5.28,5.28,0,0,1,1.68-.76c1.06-.4,2.55-.86,4.14-1.49a12.84,12.84,0,0,0,3.75-2.12c.82-.73,1.09-1.38,1.18-1.34a2.87,2.87,0,0,1-.92,1.61,10.87,10.87,0,0,1-3.82,2.33,42.82,42.82,0,0,1-4.22,1.36A7.84,7.84,0,0,1,166.15,325.88Z" style="fill:#eb996e"></path><path d="M149.75,306.84s.22-.24.69-.58a6.26,6.26,0,0,1,.89-.58,9.39,9.39,0,0,1,1.24-.66,20.23,20.23,0,0,1,3.43-1.27,36.34,36.34,0,0,1,4.39-.86c3.14-.42,6-.57,8.05-.73a28,28,0,0,1,3.34-.22,3.53,3.53,0,0,1-.88.22c-.57.12-1.4.23-2.42.36-2.06.26-4.91.47-8,.88-1.55.22-3,.49-4.34.81a24.48,24.48,0,0,0-3.4,1.14C150.84,306.16,149.8,306.92,149.75,306.84Z" style="fill:#eb996e"></path><path d="M147.25,297.05a4.06,4.06,0,0,1,.91-.46c.6-.26,1.48-.61,2.58-1a79.71,79.71,0,0,1,17.77-4.24c1.16-.14,2.1-.22,2.76-.26a3.88,3.88,0,0,1,1,0,37.3,37.3,0,0,1-3.73.62c-2.31.36-5.48.93-8.94,1.75s-6.54,1.75-8.76,2.47A37.69,37.69,0,0,1,147.25,297.05Z" style="fill:#eb996e"></path><path d="M161.3,332.9a39.46,39.46,0,0,0,3.25-3.38,38.49,38.49,0,0,0,2.38-4,8.66,8.66,0,0,1-2,4.35A8.88,8.88,0,0,1,161.3,332.9Z" style="fill:#eb996e"></path><path d="M150.85,327.67a4.17,4.17,0,0,1,.52-2.86,4.22,4.22,0,0,1,1.91-2.19c.11.11-.78,1-1.44,2.42S151,327.69,150.85,327.67Z" style="fill:#eb996e"></path><path d="M166.57,341.77a5,5,0,0,1-1.18-.09,32.27,32.27,0,0,1-3.19-.57c-.67-.17-1.4-.35-2.17-.58s-1.59-.5-2.42-.87a22.08,22.08,0,0,1-5.16-2.88,14.65,14.65,0,0,1-4-4.35,9,9,0,0,1-.62-1.19,6,6,0,0,1-.46-1.17c-.12-.39-.24-.76-.35-1.13s-.12-.73-.17-1.07a9.6,9.6,0,0,1-.13-1.86,6.43,6.43,0,0,1,.09-1.39,4.7,4.7,0,0,1,.21-1.17,5.65,5.65,0,0,1,0,1.18,7,7,0,0,0,0,1.38,10.3,10.3,0,0,0,.2,1.8c.06.33.13.68.2,1s.24.71.36,1.08a5.48,5.48,0,0,0,.48,1.12,7.84,7.84,0,0,0,.61,1.14,14.8,14.8,0,0,0,3.91,4.19,22.65,22.65,0,0,0,5,2.84c.81.39,1.63.62,2.37.91l2.12.64C164.91,341.44,166.59,341.67,166.57,341.77Z" style="fill:#eb996e"></path></g><g id="freepik--speech-bubble--inject-335"><circle cx="110.11" cy="87.5" r="47.23" transform="translate(5.87 181.91) rotate(-80.64)" style="fill:#fafafa"></circle><path d="M163.83,113.29a16,16,0,0,0-1.55.58,7.32,7.32,0,0,0-3.17,3,7,7,0,0,0-.86,2.91,6.11,6.11,0,0,0,.8,3.34,6.61,6.61,0,0,0,12.31-1.45,6,6,0,0,0,0-3.43,7,7,0,0,0-1.51-2.63,7.24,7.24,0,0,0-3.79-2.23,15.14,15.14,0,0,0-1.64-.21s.14,0,.43-.06a3,3,0,0,1,.53,0,4.05,4.05,0,0,1,.72.08,7.43,7.43,0,0,1,5.67,4.93,6.42,6.42,0,0,1,0,3.69,7.45,7.45,0,0,1-2.12,3.48,6.66,6.66,0,0,1-8.2,1,7.54,7.54,0,0,1-2.87-2.9,6.55,6.55,0,0,1-.81-3.6,7.44,7.44,0,0,1,4.38-6.11,3.29,3.29,0,0,1,.68-.24,2,2,0,0,1,.51-.12C163.68,113.28,163.83,113.27,163.83,113.29Z" style="fill:#263238"></path><path d="M183.38,124.76a7.85,7.85,0,0,0-.95.35A4.51,4.51,0,0,0,180.5,127a4.31,4.31,0,0,0-.52,1.77,3.62,3.62,0,0,0,.48,2,4.31,4.31,0,0,0,4.06,2.17,4.27,4.27,0,0,0,3.44-3.06,3.63,3.63,0,0,0,0-2.09,4.18,4.18,0,0,0-.92-1.6,4.42,4.42,0,0,0-2.31-1.36c-.63-.14-1-.09-1-.13a.94.94,0,0,1,.27,0,1.57,1.57,0,0,1,.32,0,4.24,4.24,0,0,1,.44,0,4.39,4.39,0,0,1,2.44,1.33,4.13,4.13,0,0,1,1,1.68,3.87,3.87,0,0,1,0,2.24,4.49,4.49,0,0,1-1.29,2.12,4,4,0,0,1-5,.59,4.59,4.59,0,0,1-1.74-1.76,3.9,3.9,0,0,1-.49-2.19,4.34,4.34,0,0,1,.59-1.87,4.42,4.42,0,0,1,2.07-1.86,3.08,3.08,0,0,1,.42-.15,1.48,1.48,0,0,1,.31-.07C183.28,124.75,183.37,124.74,183.38,124.76Z" style="fill:#263238"></path><path d="M157.81,88.6s0-.26-.05-.77,0-1.28-.09-2.26c0-.5,0-1.06-.06-1.67s-.17-1.27-.26-2-.2-1.5-.32-2.33a8.33,8.33,0,0,0-.24-1.27c-.11-.43-.21-.88-.32-1.34a45.21,45.21,0,0,0-5-12.74,47.5,47.5,0,0,0-11.79-13.71l-2-1.57c-.72-.49-1.47-.93-2.21-1.41l-1.12-.71a9.52,9.52,0,0,0-1.16-.68l-2.44-1.23c-.41-.2-.82-.42-1.24-.62l-1.31-.5-2.64-1c-.9-.32-1.85-.53-2.78-.8l-1.42-.39c-.23-.07-.47-.14-.71-.19l-.73-.13a43.25,43.25,0,0,0-6-.81c-1-.06-2-.18-3.09-.18l-3.14.09c-.52,0-1.05,0-1.58.07l-1.59.22c-1.05.15-2.13.25-3.19.45A50.38,50.38,0,0,0,95,42.83l-1.58.54-.8.28-.76.35-3.1,1.42c-1,.52-2,1.13-3,1.7-.49.3-1,.56-1.48.9l-1.42,1a56.09,56.09,0,0,0-5.47,4.46q-1.22,1.3-2.46,2.61l-.62.65c-.19.23-.37.48-.55.71l-1.12,1.43L71.5,60.33l-1,1.54-1,1.55L69,64.2c-.15.26-.28.54-.42.82-.56,1.09-1.12,2.2-1.68,3.31s-.9,2.31-1.35,3.48a50.56,50.56,0,0,0-2.74,14.9,50.37,50.37,0,0,0,2.14,15c.41,1.19.81,2.37,1.22,3.54s1,2.25,1.54,3.37l.39.84.46.8.92,1.59.92,1.57,1.06,1.48,1.06,1.48.53.73.59.68,2.36,2.7a52.66,52.66,0,0,0,5.28,4.67l1.38,1.08c.45.36,1,.63,1.45,1,1,.61,1.92,1.26,2.91,1.82l3,1.54.76.38c.25.11.52.21.78.31l1.56.61a50.13,50.13,0,0,0,6.28,2c1.06.24,2.13.38,3.18.58l1.58.27c.52.08,1,.09,1.58.14l3.13.22c1,0,2.07,0,3.09-.06a45.33,45.33,0,0,0,6-.57l.74-.1c.24,0,.48-.11.72-.16l1.42-.34c1-.24,1.9-.41,2.81-.69l2.69-.92,1.32-.46,1.27-.56,2.48-1.14a9.56,9.56,0,0,0,1.19-.62l1.15-.67c.76-.45,1.53-.87,2.26-1.32l2.08-1.49a47.23,47.23,0,0,0,12.32-13.23c.36-.56.73-1.11,1.06-1.67l.86-1.69c.29-.56.56-1.1.83-1.64.14-.26.28-.52.4-.79l.32-.81,1.2-3.07c.35-1,.57-2,.84-2.86l.38-1.33a7.16,7.16,0,0,0,.29-1.26c.15-.82.29-1.59.41-2.31s.27-1.37.34-2,.09-1.17.13-1.66c.08-1,.14-1.74.18-2.26s.08-.77.08-.77,0,.26,0,.77-.07,1.28-.13,2.26c0,.5-.07,1.06-.11,1.67s-.2,1.27-.32,2-.25,1.5-.39,2.32a8.53,8.53,0,0,1-.28,1.27c-.12.43-.24.88-.37,1.33-.27.91-.48,1.89-.83,2.88s-.78,2-1.19,3.09l-.31.82c-.12.27-.27.53-.4.8-.27.53-.54,1.08-.82,1.64s-.57,1.13-.86,1.71-.7,1.11-1.06,1.68a47.26,47.26,0,0,1-12.35,13.35l-2.09,1.5c-.73.47-1.5.89-2.27,1.34l-1.15.68a9.14,9.14,0,0,1-1.2.63l-2.5,1.15c-.42.19-.84.39-1.27.57l-1.33.46-2.71.94c-.92.28-1.87.46-2.83.7l-1.43.34-.73.17-.74.1a46.09,46.09,0,0,1-6,.59c-1,0-2.07.1-3.12.06l-3.16-.22c-.53,0-1.06-.05-1.59-.13l-1.59-.27c-1.06-.2-2.14-.34-3.21-.58a51,51,0,0,1-6.34-2l-1.57-.61-.79-.31-.76-.39-3.06-1.55c-1-.56-2-1.22-3-1.83-.48-.32-1-.6-1.46-1l-1.38-1.08a52.58,52.58,0,0,1-5.34-4.72l-2.38-2.72-.6-.68-.53-.74-1.07-1.49-1.07-1.49-.93-1.59-.93-1.6-.47-.81-.39-.84L65.8,105.4l-1.23-3.57A51.32,51.32,0,0,1,62.4,86.7a51.51,51.51,0,0,1,2.77-15l1.37-3.51,1.7-3.34c.14-.28.27-.56.42-.83l.5-.78,1-1.57,1-1.55,1.13-1.45,1.12-1.44c.19-.24.37-.48.57-.72l.62-.66,2.49-2.62a53.2,53.2,0,0,1,5.52-4.5l1.43-1c.47-.35,1-.6,1.49-.91,1-.57,2-1.18,3-1.71l3.12-1.43.77-.35.8-.28,1.6-.55a51.11,51.11,0,0,1,6.41-1.73c1.08-.2,2.16-.3,3.23-.45l1.6-.21c.53-.06,1.06,0,1.59-.07l3.17-.1c1,0,2.08.13,3.11.19a45.58,45.58,0,0,1,6,.83l.73.13c.24,0,.48.13.72.19l1.42.4c.94.28,1.89.5,2.8.82l2.67,1,1.31.51c.42.2.83.42,1.25.63l2.45,1.24a10.48,10.48,0,0,1,1.17.68l1.13.72c.74.48,1.5.94,2.21,1.43l2,1.59A47.44,47.44,0,0,1,151.67,64.1a45.08,45.08,0,0,1,5,12.83c.11.46.21.91.32,1.35a8.51,8.51,0,0,1,.23,1.27q.16,1.26.3,2.34c.09.72.19,1.39.24,2s0,1.17,0,1.67c0,1,0,1.75.05,2.27Z" style="fill:#263238"></path><path d="M124.74,98.84l-2.1-2.42a7.51,7.51,0,0,1-1.86-5V83.4a10.66,10.66,0,0,0-9-10.53V69.74a1.43,1.43,0,0,0-1.43-1.44h0a1.45,1.45,0,0,0-1.44,1.44v3.07A10.67,10.67,0,0,0,99.45,83.4v7.76a7.51,7.51,0,0,1-1.61,4.66l-2.37,3h10.86a4.49,4.49,0,0,0,7.24,1.73,4.44,4.44,0,0,0,1.16-1.73Z" style="fill:#FFC100"></path></g><g id="freepik--Desk--inject-335"><path d="M453,442.7c0,.14-91.36.26-204,.26s-204-.12-204-.26,91.34-.26,204-.26S453,442.55,453,442.7Z" style="fill:#263238"></path></g><g id="freepik--Envelope--inject-335"><polygon points="156.93 452.61 129.66 481.12 231.72 485.25 248.66 455.92 156.93 452.61" style="fill:#ebebeb"></polygon><path d="M156.93,452.61h.44l1.3,0,5.05.14,19,.61,65.94,2.28h.42l-.21.36-16.93,29.34-.08.14h-.15l-8-.32-94.09-3.89h-.41l.28-.3,20-20.82,5.45-5.63,1.42-1.45.49-.48s-.15.19-.47.53l-1.4,1.5-5.39,5.71-19.87,20.9-.13-.31,94.1,3.73,8,.32-.24.13c5.93-10.26,11.66-20.16,16.95-29.33l.21.37-65.85-2.47-19-.76-5.08-.22-1.32-.06Z" style="fill:#263238"></path><path d="M248.66,455.87c0,.14-10.62,3.21-23.81,6.86s-23.9,6.5-23.94,6.36,10.62-3.21,23.8-6.86S248.62,455.74,248.66,455.87Z" style="fill:#263238"></path><path d="M178.63,467.35c-.08.12-5-3.09-11-7.16s-10.79-7.46-10.71-7.58,5,3.08,11,7.15S178.71,467.23,178.63,467.35Z" style="fill:#263238"></path><path d="M229,484s-32.57-20.93-39-23a51,51,0,0,0-12.83-2.15Z" style="opacity:0.30000000000000004"></path><path d="M129.66,481.12S170.84,457.69,174,457.9s57.69,27.35,57.69,27.35Z" style="fill:#f5f5f5"></path><path d="M231.72,485.25a1.09,1.09,0,0,1-.28-.11l-.78-.37-3-1.46-10.95-5.41-16.27-8c-6.14-3-12.89-6.25-20.08-9.42-1.8-.77-3.6-1.57-5.39-2.13a2.45,2.45,0,0,0-1.29-.16,9.35,9.35,0,0,0-1.31.4c-.88.33-1.73.7-2.57,1.08-3.37,1.54-6.55,3.19-9.57,4.76-6,3.17-11.43,6.13-16,8.61L133.61,479c-1.24.68-2.22,1.21-2.91,1.6l-.77.41a.86.86,0,0,1-.27.12,1.12,1.12,0,0,1,.25-.17l.73-.45,2.86-1.69c2.5-1.45,6.12-3.54,10.61-6.07S154,467.22,160,464c3-1.59,6.2-3.24,9.59-4.8.85-.38,1.7-.77,2.6-1.1a9.94,9.94,0,0,1,1.4-.43,3,3,0,0,1,1.52.17,56.19,56.19,0,0,1,5.46,2.15c7.21,3.18,13.95,6.47,20.08,9.46s11.62,5.76,16.22,8.09l10.89,5.56,2.94,1.55.76.41Z" style="fill:#263238"></path></g></svg>